<?xml version="1.0" encoding="UTF-8"?>
<svg width="50px" height="50px" viewBox="0 0 50 50" version="1.1" xmlns="http://www.w3.org/2000/svg" xmlns:xlink="http://www.w3.org/1999/xlink">
    <!-- Generator: Sketch 47.1 (45422) - http://www.bohemiancoding.com/sketch -->
    <title>symbole/auteur</title>
    <desc>Created with Sketch.</desc>
    <defs>
        <path d="M41.8938768,40.137109 C41.9626939,40.9123894 41.4713159,42.2259026 40.5348402,41.1655217 C40.191761,40.7772783 40.1849195,39.4878921 39.9780659,39.0194265 C39.2742,37.4238286 38.3397366,36.0130032 37.6266146,34.3631196 C36.3492732,31.4081672 33.6253646,30.239818 30.8022549,29.3569714 C31.096639,29.887363 30.1881329,29.2980614 29.9611573,29.2562413 C29.5810537,29.186273 29.0870598,29.2021566 28.6985049,29.1679767 C27.8242061,29.0913735 27.0547427,28.9671196 26.1802427,28.896146 C24.6660659,28.7730984 23.3772549,28.6590984 21.8015049,29.3621989 C20.5877488,29.9038497 19.3848585,30.5745799 18.4012976,31.1126116 C17.2104805,31.7638392 15.9586939,32.509564 15.0147732,33.5088233 C14.1332305,34.4421354 13.1790476,36.0043577 12.5347427,36.7279661 C11.7035049,37.6614794 11.3407061,39.0148021 10.9573829,40.340781 C10.766828,41.000855 10.2020049,42.0226328 10.7929866,42.444855 C11.2728951,42.7878603 12.6432,42.4721989 13.2112427,42.4691831 C14.6614317,42.4607386 16.2148463,42.6716487 17.7350598,42.7321672 C20.8203585,42.8552148 24.1012427,42.6678286 27.283328,42.2944635 C30.7855537,41.8839026 34.0915902,41.3410455 37.6366756,41.7938286 C39.2106146,41.9948868 39.3971451,43.1879661 37.8906146,43.3081989 C36.492139,43.4199873 34.9628707,42.9161354 33.5474927,42.859236 C31.0274195,42.7577016 28.4662976,43.5074476 26.0542793,43.7631937 C23.9742732,43.9839556 21.9284744,43.9467598 20.2128768,43.9895852 C18.8144012,44.0247704 17.3690415,43.9674688 15.9582915,43.8641249 C14.699261,43.7718392 13.6470841,43.5860614 12.5379622,43.9521884 C12.3305049,42.9611725 9.24379756,44.6130667 9.01581585,42.4951196 C8.87979146,41.2280508 9.64543171,39.0335005 10.2398341,37.9119979 C10.9499378,36.5723471 11.8858098,35.2817545 12.8247,34.0983259 C13.4661878,33.2896698 14.1833341,32.5320825 14.9618524,31.842654 C15.4985049,31.3677545 16.7146756,30.9021037 16.7064256,30.2997333 C17.6296207,30.7480931 18.7288829,29.2602624 19.5486512,29.0043153 C19.3776146,28.5517333 18.5922549,28.3243365 18.218389,28.0122942 C17.9169622,27.7607704 17.6853585,27.4583788 17.365822,27.1931831 C16.8255476,26.7450243 15.0242305,25.7310878 15.2174012,24.9885799 C14.7612366,25.1799873 14.171261,23.8580296 14.3094988,23.4854688 C14.2261939,23.5025587 14.1533524,23.5391513 14.0909744,23.5956487 C14.0231634,22.1725587 13.3466634,20.8892042 13.4054195,19.3645799 C13.466389,17.7772254 13.9253707,16.5228233 14.4845598,15.0394159 C15.40695,12.5929397 16.6430415,10.3435005 18.5683098,8.68577566 C20.5682305,6.96351111 22.5625171,6.18461164 25.1918524,6.10861164 C26.2623402,6.07764868 27.2454988,5.8586963 28.4715293,6.26141587 C28.8554561,6.38747937 29.2478341,6.56059048 29.5764256,6.82739471 C29.8056146,7.01317249 30.1257549,7.58236825 30.2436695,7.64952169 C30.2961878,7.56990265 33.9605963,8.87497143 34.2942183,9.04888677 C36.1532854,10.0189926 37.2356451,11.9053206 37.8847793,13.785818 C38.2934561,14.9694476 38.4600659,16.0837122 38.717828,17.3944106 C38.8617,18.1264635 38.6550476,21.2794582 39.2973402,21.6473947 C38.5021207,21.8514688 37.8948402,24.809437 37.4716756,25.5957757 C36.721328,26.9905164 35.6494317,27.9748974 34.3018646,27.8269185 C34.4799439,26.6515323 35.7297183,25.9331513 36.2422244,24.8281354 C36.6098524,24.0351619 36.7557366,23.3949926 37.0078646,22.6205164 C37.3416878,21.5949185 37.5909988,20.5266963 37.5346573,19.4146434 C37.5002488,18.736072 36.9070537,17.3143894 37.190572,16.7343365 C37.1553585,16.7514265 36.0562976,13.1591196 35.6737793,12.469691 C35.0622732,11.3680931 34.3620293,10.5897968 33.2219195,10.006728 C32.35245,9.56218836 31.2757244,9.43773333 30.3668159,8.97751111 C29.4069988,8.4917545 28.5558402,7.64972275 27.5694622,7.27675979 C26.4378037,6.84910899 24.2229805,7.07409312 22.9466451,7.45389206 C21.2246085,7.96659048 20.2171024,8.91236825 18.8649073,10.224273 C16.2995598,12.7131725 14.784578,16.4852254 14.82945,19.8185693 C14.8763341,23.3197968 16.7436512,25.3728021 19.3991451,27.3681037 C21.1093098,28.6532677 21.4833768,27.773236 23.50845,27.5126646 C24.1412854,27.431236 24.6085171,27.4034899 25.2544317,27.4356593 C25.9071878,27.4682307 27.554572,27.372527 27.8163585,27.9919873 C27.9690841,27.1366857 36.2872976,28.9950667 36.5042122,30.9282413 C37.4485354,30.2002095 41.785822,38.9082413 41.8938768,40.137109 Z M17.0332945,18.1969625 C17.4684193,17.3056022 19.9409474,18.4218915 20.7784975,17.8929075 C20.6079783,17.9258198 20.5371627,17.8915433 20.5660506,17.7900779 C21.7594843,17.6990149 22.4140773,17.3139582 23.6452258,17.4029749 C24.3206824,17.451917 24.8647388,17.4851703 25.5550406,17.4232679 C26.9185922,17.3011685 28.1615767,17.3622182 29.4785866,17.2128339 C31.0650168,17.0329248 32.7619836,16.9735804 34.4220379,17.0104148 C35.1091299,17.0254215 36.3479016,16.9517525 35.9075609,17.7203312 C35.6182801,18.225441 34.8563603,17.960949 34.3482132,17.9860169 C31.0983182,18.1463151 27.5870274,18.5704231 24.3361294,18.5146598 C23.8504506,18.5064744 23.2696824,18.2750652 22.798247,18.3260537 C22.1574961,18.3954594 21.5456332,18.8449764 20.974093,18.950705 C20.4119815,19.0547283 16.6065953,19.0710991 17.0332945,18.1969625 Z M33.2347535,21.6235843 C30.4701593,22.2697517 27.3239021,21.8920358 24.4928247,21.8737622 C23.2017369,21.8654732 22.1041481,21.115693 20.8557408,21.2326813 C20.3969245,21.2756335 16.9613422,22.5139012 17.0003292,21.0921446 C17.0192072,20.411314 18.1691208,20.7619022 18.5577604,20.7159358 C19.3834656,20.6183513 20.104111,20.1747 20.9131954,20.0324678 C22.0733688,19.8288214 22.7923726,20.6449139 23.7032338,20.7669887 C25.0088905,20.9418118 26.2909498,20.70727 27.6021468,20.6942713 C29.3036249,20.6775048 31.0592745,20.9018737 32.7517241,20.6053526 C33.5776346,20.4606714 35.7760953,19.5829764 35.9802645,20.768119 C36.1600154,21.810841 35.0687877,21.3168903 34.4573061,21.3398735 C34.0442483,21.3553212 33.6615594,21.6235843 33.2347535,21.6235843 Z M19.2665347,13.2890812 C19.8046785,12.804321 20.4745442,13.049062 21.0964213,13.1692683 C21.8741132,13.3195755 22.5145538,13.1649401 23.251564,13.2867204 C24.108052,13.4281744 24.3529322,13.6886543 25.2959182,13.6044508 C26.3283645,13.5121811 26.8779624,13.6312071 27.8888829,13.7813175 C29.0980773,13.9609385 30.2821913,13.575137 31.5038272,13.650684 C31.956263,13.6786207 33.0463746,13.3248874 33.4105351,13.4748011 C34.7038577,14.0073684 33.5566732,14.6249262 32.9290691,14.7669704 C32.1650036,14.9397056 31.3805972,14.6510922 30.6208763,14.6896527 C29.2803551,14.757527 28.3586973,14.9007516 27.0118565,14.6876853 C26.235942,14.5647247 25.7910105,14.6988994 25.0559752,14.7368696 C24.0332056,14.7895952 23.1747427,14.4152044 22.1782385,14.3321814 C20.7755098,14.2153195 20.5298397,14.1785297 19.3064264,14.6357467 C18.8650497,14.8008092 16.8929747,15.5082758 17.0045531,14.3461497 C17.0408902,13.9662504 18.8328599,13.6794077 19.2665347,13.2890812 Z M31.6796559,23.6897522 C32.4008015,23.4519416 31.702945,24.5663025 31.5335881,24.7060494 C30.9924225,25.1529985 29.808763,24.8154375 29.1938485,24.8496514 C27.9783198,24.9171154 26.9172347,24.9804834 25.7182534,24.9547025 C24.4138583,24.9265122 23.349096,24.146339 22.00752,24.5065487 C21.3903582,24.6723174 19.3709462,25.4746573 19.0291681,24.5947338 C18.5930078,23.4724217 23.1801477,22.7929627 23.9850524,23.0567952 C25.3832169,23.5148277 26.4639139,23.5059128 27.9299029,23.534585 C28.6142762,23.5480778 29.3448192,23.3586967 30.0296011,23.4312205 C30.5601437,23.4873602 31.1554463,23.8632311 31.6796559,23.6897522 Z M20.1633482,11.6134959 C19.6013216,11.2213384 20.6586354,10.867054 20.7995971,10.7866988 C21.4018695,10.4430349 21.611593,10.3911347 22.3054805,10.5682768 C23.0278839,10.752633 23.1275885,10.8764722 23.9029789,10.7009331 C24.5849342,10.546635 25.3659873,10.2731067 26.0985027,10.2278192 C26.636665,10.1945549 27.2520831,10.3650843 27.7439322,10.3013612 C28.3524741,10.2224087 28.8202566,9.80700628 29.4660108,10.1079877 C31.1306531,10.8832854 28.3694623,10.8381983 28.393529,10.7594461 C27.1942423,11.447375 25.680067,11.3507884 24.4269843,11.7347301 C23.6261115,11.9802043 23.3599629,12.1122594 22.5621238,11.8764038 C22.0468148,11.7241096 21.7262634,11.5074912 21.1796071,11.4575948 C20.6262769,11.4068968 20.913054,12.1359051 20.1633482,11.6134959 Z" id="path-1"></path>
    </defs>
    <g id="Symbols" stroke="none" stroke-width="1" fill="none" fill-rule="evenodd">
        <g id="symbole/auteur">
            <mask id="mask-2" fill="white">
                <use xlink:href="#path-1"></use>
            </mask>
            <use id="Fill-1" fill="#000000" xlink:href="#path-1"></use>
            <g id="color/black" mask="url(#mask-2)" fill="#000000">
                <rect id="Rectangle-7-Copy-2" x="0" y="0" width="50" height="50"></rect>
            </g>
        </g>
    </g>
</svg>