<?xml version="1.0" encoding="UTF-8"?>
<svg width="50px" height="50px" viewBox="0 0 50 50" version="1.1" xmlns="http://www.w3.org/2000/svg" xmlns:xlink="http://www.w3.org/1999/xlink">
    <!-- Generator: Sketch 47.1 (45422) - http://www.bohemiancoding.com/sketch -->
    <title>symbole/croix</title>
    <desc>Created with Sketch.</desc>
    <defs>
        <path d="M16.8554111,33.1961277 C16.5346174,33.5665536 15.1763892,34.5616192 15.2054422,34.9889406 C14.885859,34.9816774 13.936794,36.077218 13.6498955,36.4282752 C13.6305268,36.4512755 13.6014738,36.4730653 13.5736314,36.4827496 C12.7661997,36.7623849 11.0859672,38.187193 10.9225441,38.3929851 C10.6562248,38.7319369 9.23746938,37.4826574 9.37183956,36.8785969 C9.43841938,36.5808035 9.3815239,36.2587993 9.42026125,35.9525322 C9.52073624,35.1317846 11.6888172,33.5556587 12.1609287,33.2130753 C12.4938278,32.9709669 12.7855684,32.6755946 13.1124148,32.4262229 C13.6377901,32.0255334 14.2575877,31.7156347 14.6861196,31.2326283 C15.1037566,30.7617274 17.2209948,28.3236956 17.4739981,28.0900609 C17.7657388,27.8213206 17.9061617,27.4412103 18.3782731,27.2826293 C18.7232776,27.1676278 19.007755,26.6664634 19.1748099,26.2766688 C19.4883403,25.5382381 19.9810309,24.8845453 20.5911442,24.4947507 C21.0995719,24.1691149 21.3537857,23.5432646 22.0195839,23.4113155 C22.3476408,23.3459462 22.4674845,22.6232526 22.2447447,22.3436174 C21.8537396,21.8497162 21.4155234,21.3921312 21.0511502,20.8800719 C20.9070957,20.6779114 19.8950824,19.4806852 19.5791309,18.9202042 C19.10823,18.0861406 18.5538017,17.2992882 18.0356897,16.4930672 C18.0175316,16.4664352 17.9945313,16.4422244 17.9824258,16.4131714 C17.7015801,15.7473732 17.2657849,15.0973121 17.1943629,14.4085136 C17.1435201,13.9134018 16.8711482,13.6289244 16.7210409,13.241551 C16.5818286,12.8832305 16.493459,12.4837516 16.4861958,12.1012203 C16.480143,11.6521091 16.9873602,11.4366326 17.3904707,11.6448459 C17.7136855,11.8094796 18.1446385,11.8482169 18.375852,12.0891148 C18.777752,12.509173 20.2352448,14.8963621 20.2751927,15.1324178 C20.4749321,16.3356967 21.3574174,17.1213385 22.0534791,18.0159292 C22.2762188,18.3028277 22.6018547,18.5098304 22.8802794,18.7519388 C22.9287011,18.7943078 23.9951887,19.9854813 24.3474565,20.6452267 C24.5484065,21.0192842 24.8340944,21.0156526 25.1827305,20.7844391 C25.6524209,20.4757508 26.1584275,20.2227475 26.6378022,19.9285858 C26.7988043,19.8305319 30.3614298,17.6503455 30.7911723,17.2544982 C31.2221253,16.8550193 31.8007645,16.6153319 32.3212976,16.316328 C33.2873102,15.7606892 34.2545334,15.2026292 35.2302304,14.6627274 C36.0691361,14.1990898 36.9177261,13.7511892 37.7699478,13.3093413 C38.0846887,13.1459181 38.4115351,13.0018636 38.7456447,12.8808094 C38.8747692,12.8348088 39.4595543,12.9776528 40.5,13.3093413 C41.0435334,13.5671868 40.2104007,14.7704657 40.1268733,15.1602603 C40.0336616,15.5936343 38.8715411,15.8902172 38.7383815,15.9882711 C37.8595279,16.6407533 36.8838309,17.1237596 35.923871,17.6358189 C35.4493385,17.8888223 32.95199,19.3438939 32.7437768,19.4685798 C32.0888735,19.8595849 29.9111082,21.1040222 29.5019449,21.3776047 C28.8688314,21.802505 28.2478233,22.2455634 27.6280257,22.6886219 C27.3229691,22.9065195 27.0312284,23.1425752 26.733435,23.3701571 C26.5228007,23.5311592 26.5470115,23.6885297 26.688645,23.899164 C26.8980688,24.2114839 27.0263862,24.5806992 27.2588103,24.8712294 C27.4779184,25.1448119 28.5141425,25.9098745 28.7199347,26.0999296 C29.131519,26.4812504 31.6288675,28.925335 32.1590849,29.4942898 C32.7171449,30.0922976 33.2219409,30.7387271 33.7436846,31.3682091 C35.335144,33.5383076 36.3193148,34.8194647 36.6961969,35.2116804 C37.1828348,35.7201081 37.6658412,36.2321674 38.1391631,36.75149 C38.2432698,36.8640704 38.321955,37.0081249 38.3836926,37.1509689 C38.6754333,37.8240303 38.8122246,38.4934601 38.3037969,39.1398896 C37.9176339,39.6325803 37.4709439,39.6991601 36.9661478,39.3287342 C36.0913293,38.9058515 35.4864618,38.5620575 35.1515451,38.2973523 C34.4155355,37.7150815 34.229112,36.767227 33.6589466,36.0747969 C33.6202093,36.0275858 32.5089316,34.2480888 31.7366057,33.6065015 C31.6607451,33.5435533 31.3839344,33.1989523 30.9061738,32.5726985 C30.7427506,31.912953 28.9777802,30.7254112 28.6267229,30.4530392 C28.4729841,30.3344061 27.1958621,28.6868582 27.0614919,28.5645934 C26.5433799,28.0876398 26.0313206,27.6046335 25.5180507,27.1228377 C25.4732607,27.0804688 24.7856727,26.1822465 24.5120902,25.7585567 C24.4660896,25.6859242 24.2155074,25.6483974 24.1452959,25.7040824 C23.830555,25.953454 23.558183,26.2536685 23.2494947,26.5127245 C22.8693845,26.8323076 22.468695,27.1288905 22.0776899,27.4363682 C21.9554252,27.5332115 21.8295288,27.6288444 21.7169484,27.7365826 C21.3332065,28.105798 20.9579384,28.4834871 20.5717755,28.8502814 C20.3684044,29.041547 17.4618927,32.4940133 16.8554111,33.1961277 Z" id="path-1"></path>
    </defs>
    <g id="Symbols" stroke="none" stroke-width="1" fill="none" fill-rule="evenodd">
        <g id="symbole/croix">
            <mask id="mask-2" fill="white">
                <use xlink:href="#path-1"></use>
            </mask>
            <use id="Fill-4" fill="#000000" xlink:href="#path-1"></use>
            <g id="color/black" mask="url(#mask-2)" fill="#000000">
                <rect id="Rectangle-7-Copy-2" x="0" y="0" width="50" height="50"></rect>
            </g>
        </g>
    </g>
</svg>