<?xml version="1.0" encoding="UTF-8"?>
<svg width="50px" height="50px" viewBox="0 0 50 50" version="1.1" xmlns="http://www.w3.org/2000/svg" xmlns:xlink="http://www.w3.org/1999/xlink">
    <!-- Generator: Sketch 47.1 (45422) - http://www.bohemiancoding.com/sketch -->
    <title>symbole/culture</title>
    <desc>Created with Sketch.</desc>
    <defs>
        <path d="M27.8404902,39.205229 C26.6833493,38.3866374 26.625982,37.894354 26.5919347,36.473926 C26.5296702,33.8768608 26.5240734,31.280971 26.6782189,28.6883725 C29.3751826,29.6089942 32.0257394,30.6055507 34.4615186,28.6585158 C34.5401071,28.5955111 34.6179961,28.5299203 34.6961183,28.4608031 C35.2798191,29.0955525 37.1990592,31.0256607 38.3032635,30.178623 C38.3911801,30.1113865 38.4748991,30.0283989 38.5513888,29.9235478 C39.0620979,29.2229725 38.1773352,29.0318425 37.5934012,28.9208789 C36.7396542,28.7579599 36.5960027,28.6987166 35.964729,28.0348158 C35.127306,27.1543949 34.6811934,27.0794005 34.1674528,27.3025031 C33.716443,27.4875208 33.2397812,27.8994026 32.4676544,28.1817485 C31.8016338,28.4253042 30.881891,28.5195762 29.9777727,28.4424659 C29.933931,28.4382343 29.8900893,28.4337675 29.8464808,28.4285955 C29.8014731,28.4236585 29.7566986,28.4194269 29.7119241,28.4135496 C28.8973548,28.3042316 28.1198644,28.0496266 27.5513216,27.6506749 C27.1590783,27.353048 26.9310083,26.8334939 26.8402933,26.2210783 C26.7316218,25.4332838 26.8465897,24.4825703 27.1404223,23.6432906 C27.6068233,22.3533389 28.5146728,21.3393856 29.6853393,21.6113874 C29.9019825,21.6760378 30.3665179,22.0768703 30.7585279,22.2007639 C31.0001237,22.2844568 31.2109369,22.2680004 31.3098139,22.0063426 C31.422683,21.7653729 30.8979818,21.0464605 30.6479909,20.7662304 C30.6130108,20.7264998 30.5836276,20.6961729 30.5624063,20.6773655 C29.4120283,19.6370818 28.1133348,20.4072444 26.9991028,20.9989718 C27.1280627,19.7466349 26.8106768,18.5500148 26.7885227,17.2939163 C26.7682343,15.9726973 26.9298422,14.7187147 27.1523155,13.4174785 C27.3617296,12.199465 27.3997412,11.4796123 28.3082904,10.5824998 C28.5214356,10.3718571 28.725486,10.1873096 28.9311689,10.025331 C28.999963,9.9717299 29.0689904,9.91906922 29.1384841,9.86993491 C29.1503773,9.86147159 29.162737,9.85347845 29.1746302,9.84525022 C29.252286,9.79164916 29.3313409,9.73969375 29.4117951,9.69126473 C29.443044,9.67245734 29.4754588,9.6550605 29.5071741,9.63719348 C29.5727034,9.60004889 29.6386992,9.56313939 29.7067937,9.52952119 C29.7562322,9.50507158 29.8077695,9.48273781 29.8586072,9.46016894 C29.9148086,9.43524915 29.9698439,9.4091539 30.028144,9.38611485 C30.0985706,9.35837395 30.1727283,9.33368926 30.2466529,9.30876947 C30.2918938,9.29348846 30.3345694,9.27656181 30.3814427,9.26245627 C30.5055054,9.2246064 30.6342321,9.18957764 30.7711208,9.15831036 C32.6045431,8.73820032 34.2763574,7.76350743 35.9337133,9.19827606 C36.6130263,9.78647713 38.0488418,11.412846 38.1143711,12.3503943 C38.1861969,13.3819796 37.4199,14.1081799 36.9432382,14.92301 C36.9259814,14.9528667 36.9077918,14.9824883 36.8912345,15.0125801 C36.8884361,15.017282 36.8861041,15.022454 36.8835389,15.0271559 C36.8527564,15.0833429 36.8233732,15.1397651 36.7960887,15.1971276 C36.7664723,15.2594271 36.739421,15.3224319 36.7149349,15.386377 C37.3984456,15.4909931 37.6435393,15.3421796 38.2552242,15.1233086 C38.5684125,15.0116398 38.8263322,14.6439553 39.2034174,14.7262377 C39.7117945,14.8374363 40.7465051,17.2257396 40.8938878,17.7050929 C40.9144094,17.7718591 40.9325991,17.837685 40.9486899,17.9030406 C41.0865114,18.4623253 41.0643573,18.975767 40.9279351,19.446657 C40.5685731,20.6778357 39.4128314,21.6045697 38.252659,22.2969167 C37.8473565,22.5388268 37.5008206,22.4565444 37.6475037,22.8656051 C37.7832264,23.2443389 38.9247428,22.9394241 39.1884926,22.8688964 C39.2197414,22.8606682 39.2565871,22.8465626 39.2964644,22.829636 C39.3584957,22.8134146 39.4170291,22.796488 39.4699656,22.7790911 C39.9888367,22.6098246 41.7352752,21.1818737 41.9906297,21.2923671 C42.3954658,21.4653951 43.1074269,24.6386717 43.2349875,25.1114424 C43.2949201,25.3387767 43.4089551,26.0814334 43.4469668,26.8255007 C43.4891761,27.7212026 43.4189827,28.6138483 43.0276723,28.6211361 C42.8418115,27.961467 42.5708325,27.2738218 42.1911821,26.6816242 C41.5251615,25.6321719 40.5228658,24.8556619 39.0779555,25.1201408 C38.357366,25.2264025 38.2139477,25.4405717 38.3475716,25.6744886 C38.4996183,26.0036179 39.2251051,26.3647197 39.7281185,26.5332809 C40.1397174,26.6790382 40.4650321,26.8226796 40.7306474,27.0029955 C41.1893528,27.3215456 41.4738574,27.7548208 41.6991291,28.4532802 C41.8241245,28.8421229 41.9400252,29.2551802 42.035171,29.6795219 C42.4220506,31.4088612 42.4495683,33.3415555 41.2112737,34.6521954 C40.5795335,35.3212682 39.965983,35.9745898 39.3405393,36.6417819 C38.8559487,37.1589851 38.1948253,37.4432118 37.6022628,37.8202999 C37.5003542,37.8854205 37.3998448,37.9521867 37.3032998,38.0243601 C37.20932,38.0944176 37.1183718,38.1689419 37.0318544,38.2491084 C37.0318544,36.7134851 37.0822257,35.7009423 36.3063677,34.3562141 C36.2212495,34.208341 36.1396293,34.0590573 36.0598748,33.9100088 C35.979887,33.7607252 35.9017648,33.6114415 35.8234095,33.4635684 C35.7450541,33.3156953 35.6666987,33.1694679 35.585545,33.0262966 C35.5046244,32.8828903 35.4213718,32.7427753 35.3336884,32.607127 C35.246005,32.4710085 35.154124,32.339827 35.0557134,32.2145227 C34.9577692,32.0889834 34.852829,31.9697916 34.73996,31.8578876 C34.6270909,31.7459837 34.5055935,31.6413676 34.3738352,31.5459201 C34.2420769,31.4504726 34.1000578,31.3639586 33.9454459,31.2877887 C33.9641019,32.0769937 34.3458511,32.6659001 34.7110431,33.3013547 C34.8500306,33.5434998 34.9864529,33.7915223 35.0986223,34.058117 C35.5661893,35.1672827 36.0428511,36.2277843 35.8516267,37.458963 C35.4931976,39.7645137 33.3745711,40.8534615 31.1932137,40.5398483 C30.5318571,40.4446359 29.9115438,40.2734886 29.3203805,40.0266417 C28.809205,39.8124725 28.3197172,39.5418812 27.8404902,39.205229 M11.7097789,36.898973 C11.6950872,36.8898044 11.6806288,36.8804007 11.6659372,36.8712321 C11.5922458,36.8235083 11.5197205,36.7748442 11.4492939,36.7247695 L11.4490607,36.7245345 C11.3716381,36.669993 11.2977136,36.6131007 11.224955,36.555268 C11.0111102,36.3829453 10.8194194,36.1958118 10.6606098,35.9896358 C10.1930429,35.3835677 9.93978712,34.3743162 9.84137651,33.4109077 C9.84067691,33.4033848 9.83997731,33.3960969 9.8392777,33.3890441 C9.83274809,33.3239236 9.82785088,33.2597433 9.82272047,33.1955631 C9.81922246,33.1523061 9.81572445,33.1092842 9.81292605,33.0667325 C9.81106044,33.0378162 9.80989444,33.00937 9.80826204,32.9804536 C9.80429763,32.9115716 9.80079962,32.8431597 9.79846762,32.7756882 C9.79823442,32.7712214 9.79823442,32.7669898 9.79800122,32.7627581 C9.7924044,32.5897301 9.7912384,32.4218742 9.79520281,32.2629518 C9.79520281,32.2596605 9.79543601,32.2568394 9.79543601,32.2540183 C9.79730161,32.1773782 9.80010002,32.1023837 9.80406443,32.0299752 C9.80849524,31.9533351 9.81385885,31.8788109 9.82038846,31.8075779 C9.82761768,31.7269412 9.8390445,31.6467747 9.85350293,31.5670784 C9.85886655,31.5374568 9.86656216,31.5083053 9.87285857,31.4789188 C9.8833526,31.4295494 9.89338022,31.38018 9.90620625,31.3312808 C9.91833267,31.2849676 9.9332575,31.2386544 9.94771593,31.1928114 C9.95704395,31.1627196 9.96520597,31.1326277 9.97546679,31.102771 C9.99832044,31.0357697 10.0237393,30.9692385 10.0505574,30.9029425 C10.0531226,30.896595 10.0552214,30.8904826 10.0577866,30.8841351 C10.4274093,29.9896087 11.1461333,29.1778348 11.7718102,28.5256886 C12.7990584,27.454843 13.6598014,27.3934839 14.9668901,26.9912408 C13.952468,24.5237115 10.8441386,27.2888678 9.84790612,28.4062617 C9.99085802,26.418791 10.2051693,24.359617 11.399389,22.6949281 C12.2179227,23.6555154 13.1094482,24.1633149 14.3638337,24.1769503 C14.5109832,24.1785959 16.3222514,24.1771854 16.695139,23.7836408 C16.7746604,23.7175798 16.801012,23.6409397 16.7483087,23.5520748 C16.7317515,23.506702 16.6422025,23.4714381 16.5062466,23.4427569 C16.3308798,23.4034964 16.0794897,23.3781065 15.8026807,23.3571832 C15.1569486,23.3047576 14.3775925,23.2723149 14.1345976,23.1702848 C13.4564506,22.8858231 12.1626542,21.9790719 12.3156337,21.0876017 C12.3764991,20.7309666 12.9028326,20.3465906 13.1199422,20.0522549 C13.4690434,19.5792491 13.6859198,19.1708937 13.8456622,18.6428763 C13.8528914,18.6219531 13.861753,18.6015 13.8678162,18.5805768 C14.0522778,17.9646348 14.1096451,17.3350575 14.2309094,16.720291 C14.2577274,16.5869936 14.2850119,16.4539314 14.3197588,16.3225147 C14.3279208,16.2917176 14.3349168,16.2606855 14.3435452,16.2298884 C14.3659325,16.149957 14.3936833,16.0709659 14.4207346,15.9917398 C14.436359,15.946367 14.4494183,15.9007591 14.4666751,15.8558564 C14.5126156,15.7364295 14.5639197,15.618178 14.623619,15.5013371 C14.6837847,15.3844963 14.7402193,15.2801152 14.7938554,15.1867836 C15.4209315,14.100892 15.6520332,14.6061055 16.1662403,15.2279247 C16.2844729,15.3722714 16.4190296,15.5224955 16.578772,15.6619052 C16.607922,15.6872952 16.6377717,15.7124501 16.6685541,15.7368997 C17.0605642,16.0488672 18.3501629,16.5387997 18.84688,16.0846013 C18.8475796,16.083896 18.8485124,16.0836609 18.849212,16.0829556 C18.8790616,16.0554498 18.9042473,16.0225369 18.9278005,15.9877432 C18.9326977,15.9806905 18.9394605,15.9755184 18.9441246,15.9679955 C18.9707094,15.9245034 18.9928635,15.8758393 19.0091875,15.8212978 C19.0994361,15.5224955 18.6883036,15.3299548 18.2461555,15.1545759 C17.8823627,14.9998852 17.4992143,14.8611807 17.362792,14.7158936 C16.969616,14.2807377 16.8268973,13.553597 16.8597786,12.8779416 C16.882399,12.5238925 16.9504935,12.1820682 17.0491374,11.8983117 C17.6575574,10.302975 18.8228603,9.37200931 20.2577429,9.19780588 C20.2941222,9.19357421 20.3295687,9.18652144 20.3661812,9.18299506 C20.4121217,9.1787634 20.458995,9.17899849 20.5051687,9.17617738 C20.5849232,9.17147553 20.6642114,9.16536313 20.7448988,9.16512804 C20.8064637,9.16512804 20.8691946,9.17006498 20.9314592,9.1724159 C20.9967553,9.17500192 21.0613518,9.17523701 21.1273476,9.18064413 C21.3871329,9.20203754 21.6532147,9.24599981 21.9241937,9.31323622 C22.4269739,9.43877554 22.936517,9.59111538 23.4117796,9.78765259 C24.7603781,10.3485829 25.8326339,11.2781381 25.6474727,12.988435 C25.3524741,15.7155063 25.3286877,18.3917976 25.3286877,21.1451993 C25.2839132,21.1221602 25.2349411,21.0995914 25.182471,21.0779629 C25.1747753,21.0749067 25.1661469,21.0723207 25.1586845,21.0690294 C24.3634708,20.7504792 22.7634822,20.6004903 22.3486186,21.4656302 C21.8614627,22.396831 23.4486253,21.7289336 24.1664164,21.7714853 C24.2013965,21.7736011 24.2349773,21.7766573 24.2655266,21.7822996 C25.2829804,21.9865948 25.5453309,22.4551339 25.5763466,23.1573547 C25.5847418,23.3788117 25.5716826,23.6268342 25.5523269,23.898836 C25.5429989,24.0224946 25.5327381,24.1494445 25.5222441,24.2825067 C25.4606791,25.0641888 25.5474297,26.0160778 25.2689883,26.7838894 C25.2643243,26.7963493 25.2591939,26.808339 25.2542967,26.8203287 C25.2356407,26.8685226 25.2165182,26.9167166 25.1948306,26.9630298 C25.1787397,26.9975883 25.1605501,27.0312065 25.1425937,27.0645896 C25.1281352,27.0918604 25.1148428,27.1193662 25.0992184,27.1456965 C25.0747323,27.1873079 25.0469815,27.2268034 25.0192306,27.2662989 C25.0064046,27.2846361 24.9949778,27.3041488 24.9814521,27.3220158 C24.9385432,27.378673 24.8923695,27.4332145 24.8424646,27.4849348 C24.4581502,27.8803601 23.986852,28.1587095 23.4679809,28.3399657 C21.9092688,28.8832641 19.9175034,28.5543699 18.5707706,27.9137432 C17.5962257,27.4501411 17.0787538,26.548797 16.0197904,27.4670678 C15.2101183,28.1692886 14.90859,29.0424216 13.590774,28.8757411 C13.5483315,29.0043367 13.5268771,29.1181214 13.5229127,29.2185058 C13.5189483,29.3186551 13.5329403,29.4056393 13.561624,29.4806338 C13.5805132,29.5307084 13.6059321,29.575376 13.6374141,29.6151066 C13.668663,29.6550723 13.7055087,29.689866 13.7470184,29.720428 C13.7887613,29.75099 13.8351682,29.7770852 13.8855395,29.7991839 C14.0112345,29.8546657 14.1611824,29.8847575 14.3213912,29.8972174 C14.3535729,29.8995683 14.3859877,29.9014491 14.4186358,29.9026245 C14.4843983,29.9045053 14.5510937,29.9040351 14.6180222,29.901214 C14.685184,29.8983929 14.7525789,29.8934559 14.8195074,29.8864032 C14.9197836,29.8760591 15.0188939,29.8619536 15.1135733,29.8450269 C15.3346473,29.8055314 15.5326345,29.7519303 15.6690568,29.7032662 C16.5046142,29.4046989 16.8217669,28.6745021 17.6272414,28.7598406 C17.6808775,28.7657179 17.7366124,28.7748865 17.7951457,28.7880517 C19.0217803,29.0685169 20.093803,29.7603937 21.3752397,29.9162599 C22.6862929,30.0867019 23.7953944,29.5734952 25.0257602,29.1978177 C25.0257602,29.4343206 25.0227286,29.6708235 25.0178314,29.9075615 C25.0166654,29.9595169 25.0145666,30.0114723 25.0134006,30.0631926 C25.0085034,30.2545578 25.003373,30.4456879 24.9966102,30.6370531 C24.9961438,30.6488077 24.9956774,30.6605623 24.995211,30.672552 C24.9739897,31.2642795 24.9464721,31.8557718 24.9240848,32.4474993 C24.9212864,32.5184972 24.9187212,32.58926 24.916156,32.6602578 C24.9117252,32.7834462 24.9086936,32.9063995 24.9051956,33.0293528 C24.9014644,33.1581835 24.8981996,33.286779 24.8956343,33.4153745 C24.8937687,33.5016534 24.8930691,33.5879323 24.8919031,33.6744463 C24.8900375,33.8397162 24.8888715,34.0049861 24.8895711,34.170256 C24.8898043,34.2245624 24.8907371,34.2791038 24.8912035,34.3334101 C24.8921363,34.4439035 24.8916699,34.5543969 24.8942351,34.6648903 C24.8956343,34.7231932 24.8984328,34.7826716 24.9026304,34.8437956 C24.9040296,34.8861122 24.9037964,34.928664 24.905662,34.9707455 C24.9369108,35.7749964 25.297672,36.9309455 25.1423605,37.7246173 C25.0735663,38.07514 24.8988992,38.3311556 24.6677975,38.5436791 C24.4705098,38.7138859 24.2268153,38.856587 23.9462751,39.0239728 C23.3450843,39.3838992 22.7732767,39.4943926 22.1494653,39.6744733 C22.0214383,39.7085617 21.8929448,39.7447659 21.7632853,39.7887282 C21.1721221,39.9902023 20.6744722,40.3056963 20.0744474,40.4267688 C20.0401669,40.4338216 20.0047204,40.4389936 19.9699735,40.4448709 C19.5359874,40.4954158 18.9641798,40.4418147 18.3858426,40.297468 C18.3727834,40.2944118 18.3601905,40.2901802 18.3473645,40.287124 C18.3021236,40.2756045 18.2571159,40.2624393 18.211875,40.2497443 C17.3128871,39.9824443 16.3947768,39.4972137 16.0386796,38.8803313 C16.0004347,38.8140353 15.9649883,38.7442129 15.9325734,38.6713342 C15.5827727,37.886831 15.5620178,36.7480437 15.7080013,35.7888669 C15.7739971,35.3816869 15.8719413,35.0008373 15.9904071,34.6768801 C16.1303274,34.4001764 16.5048474,33.8940225 16.8816994,33.3648296 C17.3037923,32.8234119 17.7331144,32.24579 17.7988769,31.8724634 C17.8613747,31.6966143 17.8623075,31.5696644 17.7711261,31.5191196 C17.5838661,31.4145035 17.3707208,31.4177948 17.1477812,31.4927892 C16.4931874,31.6629961 15.758839,32.5227288 15.3006001,33.2204829 C15.1548497,33.4348872 15.0436131,33.6239014 14.9836806,33.7543777 C14.979483,33.7635463 14.9762182,33.7727149 14.9720206,33.7818835 C14.9435701,33.839246 14.9193172,33.8919067 14.900428,33.9382199 C14.333984,35.3247946 14.495592,36.8324418 14.495592,38.2921303 C13.9690252,38.0123704 13.3330875,37.7481266 12.7127742,37.4469733 C12.7116082,37.4467382 12.710209,37.4460329 12.709043,37.4455627 C12.6365176,37.4100638 12.5644587,37.3740946 12.4926329,37.3381255 C12.4697793,37.3263709 12.4469256,37.3150864 12.4243052,37.3033318 C12.3622738,37.2715944 12.3009421,37.2393867 12.2398436,37.2064738 C12.2116263,37.191663 12.1834091,37.176382 12.1556582,37.161336 C12.0947929,37.1279529 12.0350935,37.0940996 11.9756274,37.0597761 C11.9509082,37.0454355 11.9264221,37.03133 11.9019361,37.0167542 C11.8371063,36.9784342 11.7729762,36.9391738 11.7097789,36.898973 M43.0733796,19.7449892 C42.5694333,17.64679 41.5097703,15.4418588 40.3771155,13.6151912 C40.3260446,13.5333791 40.2766061,13.451802 40.2269344,13.370225 C39.9907023,12.9235495 39.7572686,12.4740529 39.5345621,12.0165632 C38.7894865,10.4858769 37.6029624,8.94531669 36.2713876,7.90597339 C35.6373155,7.4108689 34.4221077,6.99052377 33.6180324,7.00016256 C32.9513122,7.0081557 32.3923306,7.38759475 31.7771477,7.62409766 C30.8709306,7.88316944 29.8959193,7.84320374 29.0419391,8.24215546 C27.9934697,8.73185283 27.2113152,9.63742858 26.3967459,10.4245178 C25.4707068,9.54221617 24.3289571,8.78380824 23.1228442,8.3115077 C22.3427885,7.99225229 21.5296184,7.77455677 20.7264759,7.70261851 C19.3746127,7.58107576 18.3044556,8.11355994 17.4248233,8.94320086 C17.1456824,9.18228978 16.8798338,9.46204968 16.6303093,9.78647713 C15.5673814,11.1699956 14.3073992,12.8831136 13.5695528,14.4681063 C13.2593961,15.1350633 12.896303,16.0239475 12.7071774,16.735572 C12.4152104,17.8346288 12.1006229,18.6769647 11.5574989,19.655419 C10.9507113,20.6940571 10.2471454,21.6746273 9.65574892,22.7212584 C7.6630507,26.2495245 7.59425656,31.4319003 8.78334587,35.2124204 C8.88338888,35.5300302 9.01374796,35.8057935 9.16392908,36.0547563 C9.37963953,36.4548835 9.66227853,36.8237434 10.0461265,37.1455849 C10.5876181,37.6000184 11.2310182,37.8684938 11.857628,38.1719981 C12.2130255,38.3633632 12.5728539,38.5608408 12.9245202,38.7874699 C13.1542227,38.935578 13.3839252,39.0850968 13.6143273,39.2348506 C14.1742417,39.6182862 14.7308912,40.0066588 15.3332481,40.3310862 C15.5960651,40.4728469 15.8670441,40.612962 16.1431534,40.7481401 C16.8861302,41.127344 17.6587234,41.4435433 18.4823876,41.6417261 C18.6491259,41.6819269 18.8181963,41.7099029 18.9881995,41.733177 C19.6954965,41.8507232 20.4137541,41.8575409 21.1280472,41.6894499 C21.4507967,41.613515 21.7905698,41.511485 22.1326749,41.3946441 C22.9759279,41.1358074 23.7883984,40.7747055 24.5157507,40.3858628 C24.9212864,40.1693427 25.4611455,39.6502588 25.9783842,39.4424372 C26.0222259,39.4248052 26.0658344,39.4095242 26.1092097,39.3968292 C26.1101425,39.3963591 26.1113085,39.396124 26.1124745,39.3958889 C26.1579486,39.3827237 26.2031895,39.3723796 26.2477308,39.365562 C26.2540272,39.3643865 26.2610232,39.3627408 26.2673196,39.3618005 C26.2957701,39.3578039 26.3237542,39.3570986 26.3517382,39.3559232 C26.414236,39.3535722 26.4758009,39.3561583 26.5359666,39.3695585 C27.3524015,39.5787907 28.2394962,40.8196082 29.06969,41.2136229 C29.1613378,41.257115 29.2576496,41.2991966 29.3551274,41.3408079 C30.1594359,41.6835726 31.1451744,41.9543989 31.9888937,41.9967156 C32.2421495,42.0094106 32.4751168,41.9842557 32.698756,41.939353 C33.6404196,41.8279193 34.6284901,41.4722245 35.4104114,40.9938116 C36.5080861,40.4488675 37.4875282,39.5914857 38.5796061,38.9308762 C40.1721323,37.9674677 41.5370547,36.6883302 42.5778285,35.1919674 C43.1979087,34.37126 43.7146809,33.4722668 44.0887345,32.4376254 C44.4383021,31.4695151 44.608072,30.4384 44.6971546,29.4157483 C44.7939328,28.3042316 45.1110855,27.1174854 44.9597384,26.0083197 C44.6682378,23.8718004 43.5766263,21.8406025 43.0733796,19.7449892 M2.46712857,27.82015 C2.5017,27.79965 2.53784286,27.77165 2.57698571,27.72515 C2.6267,27.67115 2.66441429,27.58015 2.69427143,27.46815 C2.69627143,27.4604 2.69827143,27.45265 2.70027143,27.44465 C2.7047,27.4284 2.70855714,27.41065 2.7127,27.3934 C2.82712857,26.90915 2.8307,26.1139 2.86184286,25.74665 C2.91655714,25.2974 2.9667,25.0024 2.92284286,24.7654 C2.89327143,24.54365 2.78627143,24.4004 2.52384286,24.1989 C2.51027143,24.22015 2.4987,24.2474 2.48555714,24.2704 C2.17841429,24.8129 2.0127,25.81065 2.00027143,26.57715 C1.99612857,26.8304 2.03627143,27.2679 2.13598571,27.5584 C2.1927,27.81465 2.29812857,27.9329 2.46712857,27.82015 M2.03420815,31 C2.01685496,31.142585 1.99317509,31.56879 2.00185168,32.0563243 C2.00239397,32.0828929 2.0027555,32.1090187 2.00329778,32.1358088 C2.00329778,32.136473 2.00347855,32.1371372 2.00347855,32.13758 C2.0267969,33.1305824 2.1893023,34.3297131 2.82106692,33.9161281 C2.92084776,33.8508136 2.97471496,33.6971583 2.99261044,33.493687 C3.06798836,32.6676241 2.55390008,31.0088562 2.03420815,31 M37.8819762,4.99998515 C38.3851678,5.00192393 38.8357751,4.81413939 39,4.3502174 C38.9493033,4.31393455 38.8773032,4.25937178 38.7907413,4.19345331 C38.0359539,3.61846702 36.1110976,2.1422257 36.0018839,3.67579946 C35.9967603,3.74781124 36.0021536,3.8181612 36.0172548,3.88684935 C36.1537044,4.52055294 37.0843122,4.99887728 37.8819762,4.99998515 M34.3509033,3.96385447 C34.7373082,3.86724695 34.9282377,3.73355171 34.9825049,3.58131261 C35.2115066,2.95859787 33.1291819,2.02512394 32.43138,2 C31.0539602,3.04025066 33.3257938,4.22287031 34.3509033,3.96385447 M23.5734929,3.9612585 C23.9369987,3.83747809 24.0321337,3.60133391 23.991155,3.33214157 C23.9294457,2.85744972 23.4295047,2.28932168 23.2220397,2.03815561 C23.2210754,2.03695386 23.2199505,2.03545167 23.2189863,2.03424992 C23.2087015,2.02193197 23.1993808,2.01051533 23.1910243,2 C22.9805059,2.65705765 22.7723981,4.26950776 23.5734929,3.9612585 M37.423656,44.0041416 C36.7288188,44.0419717 35.6057146,45.1443819 35.1467432,45.5772464 C35.0817456,45.6383566 35.0313026,45.6854019 35,45.7118345 C35.5052274,46.1102638 35.8487581,46.0350885 36.2792182,45.8473926 C37.0005729,45.7511197 37.7703768,45.4526008 37.9556003,44.961536 C37.989096,44.8858757 38.0066414,44.8017278 37.9976693,44.7056973 C37.9735444,44.1481872 37.7448562,43.9694639 37.423656,44.0041416 M8,41.0669281 C8.56823384,41.8519012 9.21958091,43.3437065 10,42.928326 C9.57404473,41.9415576 8.85243881,40.6962388 8,41.0669281 M7.38233392,13.7409576 C7.38431181,13.7393508 7.3862897,13.7382032 7.38826759,13.7368259 C7.39271784,13.7331534 7.39741532,13.7285626 7.40186557,13.7251196 C7.42930879,13.7028546 7.45650476,13.6789828 7.4834535,13.6544224 C7.53388967,13.607138 7.58432585,13.5534265 7.63451478,13.4971901 C7.86394992,13.2447003 8.07756195,12.9199066 8.27708152,12.5797339 C8.50874178,12.1929654 8.71790356,11.8034424 8.88775479,11.5257036 C8.92533468,11.4655651 8.96340905,11.4038199 9,11.3501084 C8.69317995,11.1357216 8.51220309,11.0294463 8.36213075,11.0101652 C8.08794587,10.9543879 7.91858911,11.1309013 7.5600967,11.4719921 C7.25574901,11.7093326 6.77413301,12.1006918 6.42676623,12.4989371 C6.2104346,12.7342118 6.04379744,12.9793564 6.01165674,13.2162378 C5.98792207,13.3688794 6.0017673,13.4981083 6.04107784,13.6064494 C6.04503362,13.6172376 6.0489894,13.6280258 6.05368689,13.6385844 C6.06085674,13.6560292 6.06951,13.6725558 6.07816327,13.6888529 C6.08978336,13.7099702 6.1016507,13.7313171 6.11574316,13.7503686 C6.1159904,13.7505981 6.11623763,13.7505981 6.11623763,13.7508277 C6.28707781,13.9902339 6.62480238,14.0538155 6.961538,13.9558035 C6.97093298,13.9530491 6.98057519,13.9502946 6.98997016,13.9473107 C7.01049076,13.9411132 7.0312586,13.933768 7.05202643,13.9261933 C7.10221537,13.90806 7.15265154,13.8876312 7.20209877,13.8621527 C7.26217715,13.8316244 7.32225554,13.7887011 7.38233392,13.7409576 M37.3768574,17.5683274 C37.2681784,17.5410331 37.150622,17.5242178 37.0292996,17.5113017 C36.6255191,17.4635367 36.1859607,17.4445282 35.914801,17.2407956 C35.4448446,16.8886502 35.1618486,16.1209975 34.9038703,15.5219848 C34.8990281,15.5110183 34.894186,15.4995645 34.8896129,15.4888417 C34.8879988,15.4854299 34.8863848,15.4820181 34.8847707,15.4783626 C34.8269341,15.3445717 34.7690974,15.2185792 34.7088397,15.106965 C35.0940587,14.947342 34.9958709,14.3734303 34.7099158,13.865561 C34.4592007,13.3715827 34.0408938,12.9382854 33.65971,13.0072523 C33.5009955,13.0196809 33.3565384,13.1188665 33.2465142,13.3399018 C33.1876016,13.4364067 33.131917,13.5531386 33.0818816,13.6978959 C32.8026517,14.5067337 33.2782571,15.8309954 33.8937466,16.8932805 C34.1974562,17.4340491 34.5514703,17.9153551 34.9003732,18.2465424 C34.9582098,18.301131 35.0190055,18.3527952 35.0811463,18.4029973 C35.0991698,18.4173755 35.1171933,18.4322412 35.1357549,18.4466194 C35.1839072,18.4839054 35.2339426,18.5185107 35.2845161,18.5526286 C35.315721,18.5735868 35.3471949,18.5947886 35.3797448,18.6150156 C35.4322013,18.6474276 35.4857338,18.67789 35.5403423,18.7066465 C35.5658981,18.7202937 35.5917228,18.7332098 35.6178165,18.7461258 C36.1022993,18.9856822 36.6650632,19.0899855 37.1995814,18.9067236 C37.3074535,18.8696813 37.4134425,18.824597 37.5108232,18.7724453 C37.9057264,18.5821162 38.1785002,18.2631139 37.8608022,17.8349343 C37.7540061,17.6916392 37.5804962,17.615605 37.3768574,17.5683274 M43.4103102,10.9999271 C44.9242781,11.0146563 43.1332113,8.79318547 42.3782426,9.01566231 C41.9860216,9.09700266 41.9351362,9.39246597 42.0615941,9.73123751 C42.2444794,10.296443 42.9342038,10.9742059 43.4103102,10.9999271 M48.1002857,22.1527 C47.3388571,21.9257909 47.3128571,22.0845182 47.108,22.7385182 C46.7142857,23.9966091 47.6625714,25.7897909 48.8162857,24.1490636 C48.8162857,23.4137909 49.0688571,22.4412455 48.1002857,22.1527 M26.057,47.9835 C26.4085,48.8528333 27.25775,48.8021667 27.889,49.0001667 C28.427,49.0001667 28.51825,48.4835 28.8185,47.9071667 C27.8275,47.1288333 27.011,46.9128333 26.057,47.9835 M4.98192948,18.4884677 C4.98873526,18.4615953 4.99483699,18.4381817 5,18.4187591 C4.70054569,18.1175752 4.51373877,17.9776258 4.33561508,18.0029018 C4.14200238,18.0082231 3.98265326,18.1824947 3.78176541,18.5033672 C3.77918391,18.5068261 3.77683709,18.5097528 3.77425558,18.5132116 C3.43373191,18.9735014 3.06645448,19.8884938 3.00919206,20.6720508 C3.00895738,20.6757757 3.00872269,20.6789684 3.00848801,20.6826933 C3.0047331,20.727392 3.00309032,20.7710264 3.00168223,20.8146608 C2.99229495,21.0738067 3.02139553,21.3143281 3.10916662,21.5088205 C3.34220591,22.0654253 3.5829897,22.1005457 3.81180471,21.854437 C4.36072606,21.2980982 4.82258036,19.1288825 4.97700116,18.5078903 C4.97864393,18.5015048 4.98052139,18.4943211 4.98192948,18.4884677 M11.030712,8.51016696 C11.0314609,8.5150614 11.0317105,8.52087355 11.0327091,8.52546209 C11.1742583,9.2856305 11.754685,9.02775446 12.3670663,8.48385932 C12.3795486,8.47254091 12.3920309,8.46214022 12.4045132,8.45082182 C12.4179941,8.43889161 12.4312253,8.42604369 12.4447062,8.41380758 C12.5181021,8.34589716 12.5917476,8.27370411 12.6651435,8.19967563 C12.7030897,8.16174369 12.7402869,8.12319994 12.7777338,8.08404438 C12.8104374,8.04947737 12.843141,8.01491035 12.8758446,7.97973153 C13.3489236,7.4704034 13.7678293,6.91396625 13.9390864,6.65241937 C13.9652992,6.61295791 13.9867688,6.57961451 14,6.5563659 C13.952068,5.31195339 12.1236616,6.40586173 11.3455154,7.39484542 C11.1335661,7.66159264 10.9990069,7.92252771 11.0000055,8.13084751 C11.0005048,8.20854681 11.0035006,8.28012806 11.0092424,8.34620306 C11.0142353,8.40585411 11.0217247,8.45938709 11.030712,8.51016696 M20.8831727,46.2493855 L20.8450313,46.237445 C20.8316922,46.2333511 20.8185615,46.2292572 20.8052224,46.2255045 C20.4894611,46.1292983 20.1772429,46.0760779 19.972988,46 C17.7128454,46.4100702 19.9663185,47.6112826 20.9515356,47.8900075 C21.2810529,47.9841667 21.7745994,48.1189236 21.9207041,47.7975541 C22.0363791,47.6460806 22.0420065,47.3755434 21.8258715,46.9139585 C21.6595497,46.5584733 21.2760507,46.3728842 20.8831727,46.2493855 M47,30.5940819 C48.3940238,31.8783792 49.3503219,29.7995421 48.8779476,28.7272892 C47.9173185,26.53466 47.1741086,29.9363934 47,30.5940819 M27.6043401,2.91561079 C27.6223478,2.91008033 27.6433568,2.90351292 27.6643657,2.89694551 C27.7082307,2.88277372 27.763639,2.86376279 27.8275894,2.83991271 C27.8292055,2.8392214 27.8305907,2.83853009 27.8322068,2.83783879 C27.8571405,2.8288518 27.8839212,2.81813655 27.9109328,2.80742129 C28.3500437,2.6325207 29.0410317,2.27269558 28.9980902,1.76562214 C28.9826221,1.5806976 28.8653411,1.44416454 28.695884,1.34185115 C28.3465807,1.04078709 27.6634423,1.04873712 27.2453403,1.02108485 C27.1576105,1.01382613 27.0862723,1.00725872 27.0440234,1 C27.0347887,1.09090683 26.817311,1.10818949 26.5850578,1.19114629 C26.2743095,1.26062262 25.9337792,1.42100576 26.01112,2.13063206 C26.1226292,3.15687682 27.1511462,3.05006993 27.6043401,2.91561079 M17.4023686,4.83015729 C17.6048275,4.95858293 17.8508566,5.02216745 18.0623138,4.99301407 C18.7132608,4.90304073 19.373206,4.03723574 19.864317,3.53057018 C19.9109654,3.48256764 19.9566667,3.43657568 20,3.39586148 C19.686011,3.35916844 19.4830785,3.0213914 19.1785612,3.00103431 C19.0038072,2.98897084 18.8427872,3.0847246 18.6841351,3.16866621 C18.671585,3.17092811 18.6604557,3.17243605 18.6476688,3.17520059 C18.4468674,3.21616611 18.0388712,3.30739607 17.6806017,3.45341427 C17.3751373,3.55193257 17.0969042,3.70222325 17.0306018,3.96334701 C17.0168678,4.01763261 17.0076328,4.06915366 17.0026601,4.11841281 L17.0026601,4.11866413 C16.9991082,4.1510847 17.0000554,4.18074072 17.0002922,4.2111507 C17.0012394,4.51650718 17.1705471,4.71831891 17.4023686,4.83015729 M47,15.5770109 C46.9020039,15.104798 46.8177087,14.5503961 46.6402939,14.0760912 C46.6349529,14.0614466 46.6293797,14.0471009 46.6240387,14.0327552 C46.6010491,13.9729814 46.5752728,13.9170929 46.5497288,13.8606067 C46.5260426,13.8106956 46.5028208,13.7604856 46.4763479,13.7138621 C46.470078,13.7019073 46.4628792,13.6914469 46.4561449,13.679791 C46.3776551,13.5423113 46.2903411,13.4164875 46.1835207,13.319654 C46.1043343,13.2476266 46.0137691,13.1833697 45.9190241,13.1322632 C45.5774311,12.9305266 45.1873044,12.9119968 45.0393814,13.4185796 C45.0273061,13.4601224 45.0156952,13.5034583 45.0071031,13.5524728 C44.9279167,13.9971898 45.5244853,15.2796363 46.1147841,15.7862191 C46.4535905,16.0829959 46.791468,16.1203546 47,15.5770109 M47.8993057,20.9875768 C48.7403026,21.1169435 48.9513822,20.2052953 49,19.67843 C48.3851815,18.3402587 46.6594016,16.8619401 47.0595168,19.3270944 C47.1407477,19.8290814 47.1932912,20.8789419 47.8993057,20.9875768 M13.1805397,44.0062656 C13.1609857,44.0088631 13.1438425,44.013586 13.1266993,44.0183088 C13.1202705,44.020198 13.1127704,44.0209064 13.1066095,44.0227956 C13.088127,44.0289353 13.072323,44.0372003 13.0570548,44.0459376 C13.0535726,44.0480628 13.049019,44.0492436 13.0458046,44.0511327 C13.0425902,44.053258 13.0407152,44.0563278 13.0375008,44.0584531 C13.0238398,44.0683711 13.0104467,44.0789976 13,44.0915131 C13.7328735,44.9508368 15.6995245,46.788028 17,45.6254969 C16.5960624,45.3031619 13.9688609,43.8948062 13.1805397,44.0062656 M4.15203526,36 C3.88478166,36.332615 3.99316784,37.1237298 4.29605525,37.8103535 C4.58112575,38.4602701 5.03966363,39.0167303 5.52393704,38.9996154 C5.61896054,38.996913 5.69740441,38.9836264 5.76124833,38.9615572 C6.58330059,38.6856917 5.07133813,37.013834 4.41161768,36.2905033 C4.28689934,36.1533587 4.19261821,36.050444 4.15203526,36 M46.7973878,33.0762333 C46.7031334,32.9864679 46.5900878,32.9674026 46.4876308,33.0656415 C46.4355821,33.1151581 46.3780154,33.2793308 46.3217908,33.4938145 C46.1771282,33.9595883 46.0563275,34.7852182 46.0244122,35.1403079 C45.9550637,35.9121844 46.0411155,36.0922448 46.1860764,35.9606418 C46.4554173,35.7262985 46.9293738,34.416624 46.9915638,33.7707897 C47.0303393,33.3455295 46.9302686,33.1374008 46.7973878,33.0762333 M40.0206798,6.41661928 C40.0224872,6.42065629 40.0251982,6.42493076 40.0267044,6.4287303 C40.2535297,6.97253882 41.8518498,7.85664324 42.3814101,7.99912582 C43.6538006,8.03498394 42.7157741,6.95900298 41.7807598,6.37126233 C41.4382626,6.1530265 41.0930544,6.00152003 40.852975,6.0000952 C40.7068791,5.99914532 40.5821703,6.00531956 40.4770415,6.01790552 C40.4427014,6.02194253 40.4140847,6.02764183 40.3839618,6.03286619 C40.3676954,6.03571585 40.3493205,6.03785308 40.334259,6.04094021 C40.0462843,6.10244519 39.9640488,6.22925469 40.0134503,6.38978506 C40.0158602,6.39880896 40.0170651,6.40735791 40.0206798,6.41661928 M44.724194,37.1270066 C44.3584771,36.8592835 44.1200746,37.083891 43.68421,37.1750884 C43.5074676,37.5028573 42.8599115,38.3123471 43.0274174,38.6970015 C43.0765957,38.8098696 43.1502383,38.884814 43.2383599,38.9328958 C43.2428533,38.9356046 43.2478461,38.9380877 43.2525891,38.9405708 C43.27256,38.9505032 43.2930302,38.9595326 43.3142493,38.9665305 C43.3157471,38.9672077 43.3174945,38.9676591 43.319242,38.9683363 C43.6215513,39.0692404 44.0471809,38.912128 44.3347617,38.734248 C44.3577282,38.7202523 44.3804451,38.7058052 44.4014145,38.6915838 C44.707718,38.4830036 44.9458708,38.2010592 44.9705848,37.8800624 C45.0407326,37.6057929 44.9955484,37.3256544 44.724194,37.1270066 M40,42.9300184 C40.693668,43.1436509 42.2011865,42.8533549 42.7731314,42.2610435 C42.7771375,42.2566488 42.7823762,42.2532307 42.7866904,42.2488359 C42.8202799,42.2127015 42.8461653,42.1743698 42.8723589,42.1362821 C42.8828363,42.1211447 42.8970117,42.1074723 42.9065646,42.0918466 C42.9299848,42.0525382 42.9444683,42.0110325 42.9595682,41.9695267 C42.965115,41.9541452 42.9749762,41.9392519 42.9795986,41.9233821 C42.9950066,41.8672273 43.0011698,41.8091192 42.9993208,41.7493021 C42.9993208,41.7473489 43.0002453,41.7453957 42.9999371,41.7434425 C42.9974718,41.6816722 42.9851454,41.6179487 42.9617253,41.5525161 C42.3654358,39.8808113 40.3590063,42.4944523 40,42.9300184 M32.6954074,47.3216589 C32.3809083,47.4188889 32.12364,47.5101171 32,47.548729 C32.0075588,47.8010068 32.6041622,47.9550543 33.2631255,47.9904652 C34.0624661,48.0378798 34.9538618,47.9110407 34.9951651,47.55193 C35.094509,46.682862 33.6405244,47.0287686 32.6954074,47.3216589 M32.2014839,36.4373058 C32.5509978,36.0876672 32.8335087,35.620049 32.9257752,35.2486419 C32.9730068,35.0589072 33.0099133,34.797686 32.9976111,34.5646831 C32.9993686,34.3967168 32.9692722,34.2486377 32.8811797,34.1467829 C32.8743696,34.1387206 32.8675594,34.1317332 32.8603099,34.1247458 C32.851962,34.1148022 32.841637,34.1080835 32.8324103,34.0997524 C32.8165932,34.0852401 32.802973,34.0675029 32.7845197,34.0570218 C32.6713835,33.9927914 32.5692314,33.986879 32.4747682,34.0191286 C32.2039004,34.0876588 32.0231021,34.4636346 31.8293427,34.7745738 C31.7188427,34.9446901 31.608123,35.0943816 31.4875176,35.1594182 C31.2195057,35.3031973 30.7513635,35.0632071 30.2942054,34.8355792 C29.8743933,34.602845 29.4706179,34.3800545 29.2258922,34.5493646 C29.1200056,34.6031138 29.0481696,34.7197496 29.0253227,34.9272216 C29.0200503,34.9535587 29.0143386,34.9793583 29.0101646,35.0086516 C28.9488733,35.4324642 29.1711914,35.8834201 29.5037899,36.2491836 C29.5253187,36.273102 29.5464082,36.2972891 29.5690354,36.3204013 C29.5747471,36.3271199 29.5808982,36.3330323 29.5870493,36.339751 C30.0507979,36.8329 30.701276,37.1449142 31.1579947,36.9320673 C31.5180534,36.9847416 31.8901946,36.7630261 32.2014839,36.4373058 M18.8869076,19.8266382 C19.2141628,19.9403767 19.5471071,19.9994088 19.7213001,19.9966098 C19.7221128,19.9966098 19.7229256,19.9966098 19.7240092,19.9963554 C19.8063648,20.0014444 19.8789678,20.0014444 19.9336909,19.9948287 C20.8404156,19.8846525 21.0758334,19.3564172 21.6241485,18.7566819 C21.7566219,18.6119007 21.8923461,18.4610127 22.0283413,18.3047813 C22.9177279,17.3081062 23.7778565,16.1078723 23.9677621,14.8470796 C23.9823911,14.7496258 23.9934982,14.652172 24,14.5542093 C23.9141226,14.0053638 23.4944882,12.6036066 22.5005316,13.1074147 C22.4650428,13.1252261 22.4330758,13.148381 22.4030052,13.1740803 C21.9037242,13.6000272 22.0765627,15.040715 21.7698963,15.6577528 C21.5203913,16.1590165 21.2240194,16.7457749 20.8699444,17.2735012 C20.6664935,17.5617914 20.4527481,17.8284536 20.2357519,18.0416815 C20.1466236,18.1292118 20.0745624,18.1986762 20.0081903,18.2579627 C19.6411117,18.4800963 18.8893457,18.5383651 18.4250117,18.6643171 C18.250006,18.6790751 18.1010073,18.7335271 18.0392406,18.8800895 C18.0200062,18.9256358 18.0094409,18.9699098 18.0037518,19.0129117 C17.9544468,19.3902589 18.3987338,19.6643 18.8869076,19.8266382 M18.0495874,35.8368662 C18.050953,35.8409433 18.0528649,35.8444768 18.0545036,35.8482821 C18.1298859,36.0407208 18.288844,36.2146768 18.4303223,36.3788477 C19.2046288,37.2804288 20.346014,37.0945134 21.1271486,36.4938217 C21.9544412,35.8692111 22.3840653,34.7860635 21.5461208,34 C20.9987803,34.4916974 20.5806275,35.117667 19.9390592,35.3171728 C19.6484553,35.3666415 19.4640966,35.2456877 19.0634237,35.2310102 C19.0202701,35.2296512 18.9784821,35.222856 18.9377866,35.2138864 C18.6717639,35.0652084 18.3978205,34.9105507 18.1419033,35.2304666 C17.9862226,35.424808 17.9736589,35.6115389 18.0323806,35.7882129 C18.03757,35.8045213 18.0430324,35.8208296 18.0495874,35.8368662" id="path-1"></path>
    </defs>
    <g id="Symbols" stroke="none" stroke-width="1" fill="none" fill-rule="evenodd">
        <g id="symbole/culture">
            <mask id="mask-2" fill="white">
                <use xlink:href="#path-1"></use>
            </mask>
            <use id="Fill-18" fill="#000000" xlink:href="#path-1"></use>
            <g id="color/black" mask="url(#mask-2)" fill="#000000">
                <rect id="Rectangle-7-Copy-2" x="0" y="0" width="50" height="50"></rect>
            </g>
        </g>
    </g>
</svg>