<?xml version="1.0" encoding="UTF-8"?>
<svg width="50px" height="50px" viewBox="0 0 50 50" version="1.1" xmlns="http://www.w3.org/2000/svg" xmlns:xlink="http://www.w3.org/1999/xlink">
    <!-- Generator: Sketch 47.1 (45422) - http://www.bohemiancoding.com/sketch -->
    <title>symbole/design</title>
    <desc>Created with Sketch.</desc>
    <defs>
        <path d="M42.7457254,26.6508994 C42.5573447,26.5391747 42.6276325,23.1218894 42.5772241,22.6700252 C42.4586579,21.6071512 42.2035394,20.6083326 41.7176784,19.6626453 C41.0353903,18.3343631 40.5966244,18.6692889 39.5044428,18.2792456 C39.3132223,18.2109694 38.7554168,18.0225272 38.678266,18.0314651 C38.3654027,18.0684584 37.399597,18.181921 36.8780005,18.2062522 C35.2249369,18.2837146 33.5037155,18.1543623 31.9730046,18.0741688 C31.1806701,18.0324582 28.1821997,17.8114917 27.3356702,18.4103359 C25.9157158,19.4146166 28.6046361,20.1768271 27.4154243,20.7553126 C27.1799486,20.8700166 27.1924915,19.7805769 26.4235862,20.3580693 C26.1514283,20.5624014 26.3573216,20.7054089 26.2437253,20.9514515 C25.9978365,21.4830127 26.1336788,22.2097196 26.1258691,22.7534463 C26.1126162,23.7105543 25.6698271,25.4452661 26.5281895,26.1905938 C27.6944454,27.2033158 27.2772154,25.9184821 27.6506634,25.3494311 C27.6409604,25.364576 28.660961,24.7185591 28.8765574,24.5482411 C29.5472492,24.0184179 30.5047718,23.3666906 31.3276354,22.6104387 C31.3276354,23.2894765 29.1534485,24.7240212 28.69149,25.224796 C28.4564876,25.4797766 28.120905,26.3693532 27.945304,26.5359471 C27.7226078,26.7474792 27.1638557,26.7348171 26.9558324,27.0473979 C25.47553,29.274443 31.9640116,28.2021344 32.5088008,28.7475991 C32.6952881,28.9343034 32.9906386,28.4811978 33.5198083,28.3796525 C34.0553678,28.2768658 35.1941712,28.5743017 35.7578931,28.6567297 C36.6505711,28.7870751 37.5735415,29.0932007 38.4136811,28.9722898 C39.0905261,28.8744687 39.5380484,28.8198477 40.1947773,28.7150748 C40.4304897,28.6773367 43.9623896,27.3741305 42.7457254,26.6508994 M3.42275855,40.508392 C3.86964974,40.186552 3.56290363,38.303512 3.62391917,37.739992 C3.74309016,36.638872 3.86917306,35.581912 3.89729741,34.466632 C3.94472746,32.584792 4.23860311,30.729352 4.24551503,28.864792 C4.25814715,25.303672 4.17734922,22.280632 4.12682073,18.630712 C4.10870674,17.325832 4.11252021,17.278072 5.25131813,17.189992 C6.16059275,17.119672 7.10156684,17.179192 8.03229223,17.132872 C9.50429223,17.059192 11.0168104,17.180392 12.4611627,17.185912 C14.4825409,17.193592 15.258344,16.772632 16.5530176,15.562552 C17.3786342,14.790712 18.2914839,14.305432 18.9555047,13.456552 C19.2071938,13.134472 20.5976808,11.951032 20.6112663,11.673352 C20.6617948,10.636552 19.296572,10.836472 18.8167896,11.216392 C18.0509969,11.823112 17.1917741,12.907192 16.4481472,13.609192 C15.7645824,14.254312 15.2349865,14.973592 14.4000746,15.404392 C14.0432767,15.588712 11.7001368,15.999592 11.6886964,16.073752 C11.6064684,15.863032 9.19849948,15.767752 8.70298653,15.755272 C7.66476891,15.729592 5.29469637,16.595992 4.55535959,15.726712 C4.08391917,15.172312 4.31725596,12.935512 4.29461347,12.191032 C4.27578446,11.569432 3.55670674,9.017992 3.79790881,8.523352 C3.97666528,8.156872 7.60589845,9.369592 7.98939067,9.460792 C9.74144249,9.876952 11.4365306,10.186792 13.2307689,9.877432 C16.1669036,9.371272 19.3721264,9.384472 22.3158881,8.974552 C24.9333596,8.609992 28.1769554,8.649112 31.1693389,8.576872 C32.3829762,8.547352 33.658344,8.620072 34.8162093,8.591752 C35.6925927,8.570152 36.5494321,8.482552 37.4172352,8.623912 C37.8622197,8.696392 38.7989036,9.059992 39.1847793,8.822632 C39.0198466,9.219832 48.1152145,10.049272 45.0100953,8.123752 C44.2166549,7.631512 43.0892974,7.883032 42.2462819,7.883512 C40.4913699,7.884472 38.8711212,7.503832 37.1019088,7.257352 C34.236085,6.857512 31.3004269,7.306792 28.495857,7.427032 C27.4032974,7.473832 26.3560228,7.486552 25.2834839,7.541992 C24.062458,7.604872 23.0304373,7.280392 21.7941575,7.554232 C19.259629,8.115592 16.2157637,7.905112 13.5134425,8.450872 C12.1117534,8.733832 11.227028,8.712472 9.60773264,8.400472 C8.25275855,8.139592 6.65038549,7.757752 5.18958756,7.410712 C4.27816788,7.193992 2.3974114,6.480952 2.01701762,7.811032 C1.88497617,8.272792 2.55900725,9.203992 2.64933886,9.683272 C2.73395026,10.131112 2.66864456,10.698232 2.72441658,11.138632 C3.08598135,14.000632 2.62335959,16.603192 2.73371192,19.436152 C2.88029223,23.188072 2.7239399,26.991592 2.70892435,30.763432 C2.7029658,32.286952 2.48154611,33.824632 2.39383627,35.372872 C2.35260311,36.101032 1.31033368,42.029752 3.42275855,40.508392 M47.8293319,41.9119935 C47.1856194,41.5129773 47.7510813,39.5381295 47.8082736,38.9247833 C47.9334266,37.5889261 47.593623,36.0632068 47.7096827,34.6438291 C47.8989677,32.333723 47.4632055,30.2513573 47.1171801,27.97513 C46.8015457,25.8969992 46.5969456,23.3640934 46.5873737,21.4304177 C46.5823484,20.4357005 47.6443543,15.4959932 46.8630453,14.9915765 C46.8577808,15.1129753 47.1439815,12.5221933 47.4373612,11.1268131 C47.5548567,10.5687551 48.195219,8.59508365 46.724013,9.07432655 C45.7089096,9.40511472 45.8268837,11.2486824 45.6986198,12.0424799 C45.2152372,15.0318075 45.0752477,18.5867217 45.1317221,21.7299151 C45.2061439,25.8767661 46.239434,29.9864445 46.0391413,34.1603513 C45.9671125,35.6599558 45.78381,37.3941234 45.8410023,38.9494866 C45.8639749,39.5741257 46.6594025,40.8841033 45.8240121,41.3287617 C45.3913608,41.5595605 43.9986447,41.2831195 43.634672,41.0614961 C43.6248608,41.0073843 36.492575,41.5527377 35.8172752,41.6059085 C35.017301,41.6691959 34.1287864,41.6400225 33.3807399,41.5513261 C32.731045,41.4741579 32.0430624,41.2327719 31.337611,41.1831302 C30.6632684,41.1358411 29.9925153,41.3776976 29.384219,41.3497006 C28.0671212,41.2887659 26.4157236,40.687889 24.9342278,40.8184633 C22.3995803,41.0414983 19.8115692,40.7954069 17.1410002,40.7387071 C14.6384186,40.6855363 12.2071478,40.0705432 9.71653115,40.1190086 C8.78470358,40.1371243 2.72160259,41.2019517 3.00995704,42.2479576 C3.3521536,43.4901777 8.51238211,41.4755695 9.26688965,41.4412202 C11.4174635,41.3435836 13.356019,41.671078 15.3742608,41.9642232 C17.6282115,42.2917176 20.4306339,42.3225378 22.8226597,42.3611219 C25.222343,42.3999413 29.4763489,42.426762 29.5718289,42.2794836 C32.2627382,43.2436158 35.395153,42.7568443 38.4031326,42.7396697 C40.3603534,42.7283768 42.3592121,42.6422684 44.2630693,42.861539 C44.9259256,42.9375309 45.1070744,43.0071705 45.7579658,42.9994067 C45.6246766,43.0010535 48.7523054,42.4844029 47.8293319,41.9119935 M41.7930209,35.5088624 C42.3944352,35.1140921 41.5115477,34.3459562 41.3339851,34.2465185 C40.7222501,33.9026862 39.7211439,34.140849 39.0322383,34.0785311 C37.6288601,33.9511858 36.0509685,33.6393253 34.5042735,33.8341365 C31.006735,34.2752389 27.3058321,33.9438702 23.7435547,33.7032689 C20.801222,33.5049354 17.7423125,33.0202105 14.8103004,33.0004314 C13.1367079,32.9890516 11.3814883,33.2077061 9.82775644,33.0806318 C6.1085578,32.7768998 9.19092342,35.1363098 9.34643734,34.6280124 C9.44636031,34.6290962 9.52822209,34.9211775 9.73017908,34.9474594 C10.1835854,35.006526 10.7500501,35.2219291 11.1185454,35.2335799 C12.2765729,35.2701578 13.7688497,34.5031057 14.9282846,34.8087343 C14.7650302,34.6605261 14.7938812,34.5383288 15.0141339,34.4416006 C15.0408739,34.5716554 15.0802801,34.697104 15.1323526,34.8174047 C15.9049964,35.1081312 17.4106433,35.0666763 18.3873551,35.170991 C19.9502348,35.3378946 21.4636222,35.3509001 22.936665,35.4468155 C23.956067,35.5134685 25.0775029,35.7107183 26.1818159,35.7830612 C27.278623,35.8548623 29.9962463,36.284043 30.7773343,35.5229517 C31.1842976,36.4184329 34.4587687,35.7871254 35.2241411,35.7410644 C36.1476076,35.6855201 36.9601268,35.7733071 38.0954018,35.856217 C38.9372411,35.917993 40.9800326,36.041816 41.7930209,35.5088624 M23.1623377,38.4680635 C24.426273,38.4084242 26.8668513,38.9093033 27.3538127,38.2231081 C27.4781381,38.5939688 32.9181581,38.5724895 33.0879333,38.3332466 C34.0507942,39.4673082 39.2421632,38.9003917 40.1189342,38.4838303 C42.5227199,37.3424566 39.3648054,37.1879884 38.2622286,37.2279764 C37.9092117,37.2410011 35.4275122,37.0773928 35.286594,37.4569367 C34.0709941,36.8148426 32.190241,36.9096714 30.7026642,36.809587 C28.5686912,36.666087 26.4854584,36.9005313 24.2973785,37.0312351 C24.1165415,37.1644525 21.2286802,36.7444636 20.4254945,36.7108736 C18.6604098,36.63661 16.8522801,36.494481 15.1069143,36.2849435 C13.9507117,36.1462421 12.4054209,36.3077939 11.4990715,36.2572947 C10.7163262,36.213879 9.89414301,36.2860861 9.16406165,36.2707763 C8.865392,36.2643783 7.54157846,36.2764889 7.40426738,36.2378719 C7.37949848,36.1487556 7.3354916,36.069465 7.27176579,36 C5.75966052,37.8168293 11.0255767,37.5951811 11.5777068,37.6374542 C12.2596932,37.69001 15.6842942,37.4633348 16.067611,38.080522 C16.0606372,38.0476176 21.9719876,38.3560969 22.8766537,38.431503 C22.8730466,38.3311901 22.8819441,38.2322482 22.9033464,38.1344488 C23.1705138,38.1730658 23.1505544,38.468749 23.1623377,38.4680635 M22.7207935,29.0249215 C21.6628805,28.9812427 20.4622542,29.0086738 19.3299661,29.0932883 C18.8699514,29.1274718 17.6034018,29.0160591 17.3078333,29.4125446 C17.1602905,28.9491693 11.9861516,29.0818939 11.4312363,29.1127012 C10.7461645,29.1511048 8.14665895,28.9915821 8.017227,29.6999386 C7.74484035,31.1921927 10.7816617,30.4106162 11.5377278,30.3665154 C12.7977576,30.2930843 14.7290948,30.5469279 16.4696648,30.5903957 C17.9897659,30.6283773 19.2700797,30.4998729 20.7235329,30.452818 C21.2753091,30.4346712 21.9012188,30.5585334 22.4706228,30.2534147 C22.4790745,30.2274606 27.8343216,30.9619822 28.2057141,30.2185982 C28.8280016,30.8174411 33.991757,31.1426057 34.5321837,30.548827 C34.7867011,30.6716341 36.8370867,31.2358716 37.5525846,30.8885511 C38.7218188,30.3213595 37.3094168,29.7510027 36.6093734,29.6488745 C35.9549693,29.5532875 31.3854901,28.9181511 31.3369531,29.4382877 C30.9786005,28.7980871 27.5967077,29.0257655 26.7945194,29.1027837 C25.4999584,29.2270679 24.1225706,29.0835819 22.7207935,29.0249215 M23.0343605,13.6980332 C23.0959243,14.1723353 24.4613968,13.9493937 24.7572261,13.9364092 C25.9624481,13.8834912 26.5568736,13.8553173 27.8340353,13.8555623 C28.8483402,13.8555623 33.3860804,14.1564109 33.8108019,13.4569623 C34.0934883,14.1221122 38.4142563,13.7472764 39.2196591,13.5348694 C40.7543745,13.1298997 39.7340747,12.1538565 38.6471383,12.0279312 C37.4412246,11.8877965 35.8454065,12.3192252 34.5883049,12.3449493 C32.5172692,12.3873327 30.3390155,12.5034583 28.2536841,12.5073781 C26.9506978,12.5098281 25.7318718,12.6835265 24.4436424,12.7359545 C23.2840745,12.7829927 22.8706514,12.4422106 23.0343605,13.6980332 M7.0111307,23.6977424 C6.91300601,23.7154016 7.472894,24.6031178 8.32571308,24.7588813 C8.86900645,24.8580447 9.70378791,24.6737547 10.420964,24.7099788 C11.6282826,24.7711069 12.4986583,24.7308077 13.6660537,24.7271853 C14.9726995,24.72311 16.520328,24.9230217 18.0253878,24.8752512 C18.5619471,24.8580447 20.0686903,25.0858036 20.4003422,24.9640001 C21.5335863,24.5481025 20.8471944,23.7826425 20.091057,23.4883219 C18.9520409,23.0450299 17.1165318,23.1629845 15.8962261,23.1820021 C14.4029509,23.2053214 13.4188179,23.2825239 12.1566649,23.1652485 C11.191772,23.0755939 10.2021075,23.1201948 9.22518949,23.0921211 C8.70835131,23.0774051 8.17275399,22.8908511 7.66096634,23.0946116 C7.17082384,23.2897687 7.24297436,23.5686941 7.0111307,23.6977424 M7.40342609,22.5478849 C7.76607915,22.5777995 8.57273717,23.4031571 8.61243298,22.5769448 C9.60727854,23.3550089 11.4607297,22.8450365 12.5942656,22.7239536 C13.677079,22.6082839 14.7177463,22.5493094 15.8365799,22.4307907 C16.7826634,22.3307905 17.6866006,22.2475994 18.5447162,22.1638386 C19.3932753,22.0812174 22.1957504,22.3444657 20.4238961,20.5393342 C19.3881296,19.4840616 17.3509015,20.2738066 16.0598076,20.4390491 C14.9652325,20.5792203 13.9137836,20.5758015 12.8219039,20.6327816 C11.6739109,20.6928957 10.4710299,20.741044 9.38135548,20.8131239 C8.93882074,20.8421837 7.81239093,20.6900467 7.57054054,20.8438931 C7.17799311,21.0931814 6.60093368,22.481503 7.40342609,22.5478849 M11,12.5224208 C10.4708391,12.0996875 8.4638393,11.3499989 9.13629011,13.1348381 C9.94756037,15.28875 10.5877768,12.773253 11,12.5224208 M13.8936091,14 C15.2275908,13.8576574 15.4500565,12.230012 14.037048,12.0340253 C11.7680069,11.7193313 13.9360995,13.6829159 13.8936091,14 M7.73049418,12.3745649 C7.01672603,11.3695591 4.94963438,12.5781284 6.66235989,13.7496862 C7.8256456,14.5451497 8.36554375,13.2688208 7.73049418,12.3745649" id="path-1"></path>
    </defs>
    <g id="Symbols" stroke="none" stroke-width="1" fill="none" fill-rule="evenodd">
        <g id="symbole/design">
            <mask id="mask-2" fill="white">
                <use xlink:href="#path-1"></use>
            </mask>
            <use id="Fill-1" fill="#000000" xlink:href="#path-1"></use>
            <g id="color/black" mask="url(#mask-2)" fill="#000000">
                <rect id="Rectangle-7-Copy-2" x="0" y="0" width="50" height="50"></rect>
            </g>
        </g>
    </g>
</svg>