<?xml version="1.0" encoding="UTF-8"?>
<svg width="50px" height="50px" viewBox="0 0 50 50" version="1.1" xmlns="http://www.w3.org/2000/svg" xmlns:xlink="http://www.w3.org/1999/xlink">
    <!-- Generator: Sketch 47.1 (45422) - http://www.bohemiancoding.com/sketch -->
    <title>symbole/developpement</title>
    <desc>Created with Sketch.</desc>
    <defs>
        <path d="M25.5299527,37.9277897 C25.6288144,38.1844176 24.1366133,38.2617834 24.1441805,37.5369773 C24.1478421,37.1931294 24.6919474,36.8195093 25.0864177,36.9199381 C25.6263734,37.0576869 25.4203505,37.6436959 25.5299527,37.9277897 M26.8786213,37.3654727 C26.436795,36.4913862 26.1433833,35.8630252 24.8879621,36.0257239 C23.884455,36.1555056 22.8057643,36.9530649 23.0298507,37.8600685 C23.4899847,39.7222982 27.7683764,39.1209837 26.8786213,37.3654727 M47.250371,33.5021347 C47.2180221,33.4971133 47.2655798,28.0843074 47.1707059,27.3301443 C46.8230761,24.5700604 47.3355886,21.629446 47.3660062,18.7426321 C47.3788009,17.5439576 47.2182635,16.4464279 47.2918935,15.2563614 C47.365282,14.072751 48.5445678,10.3320638 47.6916677,9.35982944 C46.4093001,7.89765211 46.4259573,11.318884 46.3812965,12.0089648 C46.3528102,12.4513242 45.6964176,15.1052419 46.1437495,15.1884533 C45.6679312,15.3701793 45.9520703,18.7156123 45.9175487,19.4415601 C45.8316069,21.2432782 45.7700475,23.0124769 45.7550801,24.9287302 C45.7430096,26.4738798 45.9218941,28.4523026 45.9238254,29.6818228 C45.9252739,30.5414348 45.994317,31.481628 45.8207435,32.3297625 C45.636548,33.2302629 45.5515718,33.2063516 44.8172039,33.4772669 C43.1758602,34.0834189 40.7212076,34.0133587 38.9804032,34.0989612 C36.5054722,34.220909 33.7814065,34.0128805 31.3810711,33.7142281 C27.9318111,33.2850199 24.3150128,33.7484213 20.9567642,34.2242566 C18.8878841,34.5174094 16.7407874,34.5083231 14.618073,34.438502 C12.7466659,34.3770499 9.99532097,33.5748251 8.2817958,34.3450087 C8.13332891,34.0621378 7.59257146,34.1472621 6.96949334,34.1298069 C6.32348132,34.1113951 4.40644787,33.67597 4.33016245,34.6407918 C4.26667173,35.4468425 6.95235326,35.2687031 7.48104024,35.4308219 C7.22176635,34.9050119 8.13453596,35.4793619 8.33804423,35.464776 C8.77306429,35.4336912 9.15714692,35.289506 9.63634493,35.289506 C9.54098815,35.3378068 9.51998552,35.3913682 9.57309562,35.4511465 C10.1628592,35.2230325 11.1263248,35.4384735 11.8078241,35.4798401 C12.8367117,35.5427269 14.240267,35.5169026 15.0004657,35.5422486 C16.5365549,35.5931797 18.379717,35.6414806 20.1313849,35.5104466 C23.4051401,35.2655946 26.3761678,34.6015772 29.3440571,34.7813904 C32.2948064,34.9600079 35.6499166,35.5078163 38.6518447,35.2407269 C40.3407461,35.0908029 42.2548827,34.8961647 44.168295,34.7350024 C45.6754149,34.6080333 45.3116107,34.9839193 45.2213235,36.5001362 C45.1725588,37.3179034 45.2090116,37.9032526 45.3050927,38.6208313 C45.3009887,38.5897466 38.9586763,38.5388155 38.0408371,38.5519667 C35.5545599,38.5873555 33.3422825,38.6390039 31.0440633,39.238939 C27.1351595,40.2597133 23.0410945,39.4995724 19.23141,39.3754726 C16.9706093,39.3020649 15.3205748,39.4558147 13.0356332,39.5069849 C10.7159286,39.5588725 8.46381862,39.8797624 6.14532105,39.3558654 C5.3146307,39.1681615 3.27423696,38.4862106 2.49303557,38.998152 C1.19932165,39.8465257 2.77307068,40.2049564 3.54727119,40.273821 C5.70957676,40.4665463 7.82577311,40.934969 9.90937916,40.8536706 C11.311486,40.7989136 13.2475908,40.8453016 15.0337802,40.6353602 C15.8466063,40.539954 20.9934585,40.8768645 20.9693175,40.9280348 C21.9021241,40.5971021 22.8192391,40.7642422 23.9041337,40.8711258 C25.0339305,40.9825526 26.0427811,40.8677782 27.0385957,40.960315 C29.2520801,41.1661915 30.1699193,40.527281 32.3240169,40.0507284 C32.935266,39.9153903 33.6503211,39.9603436 34.2777446,39.9354758 C34.7595981,39.9163467 35.2803186,39.7735961 35.6496752,39.7539889 C36.6575602,39.7009057 38.7257161,39.929498 40.160896,39.8706761 C41.8261392,39.8022897 43.0505686,39.8771322 44.7203987,39.9873634 C45.7529074,40.0555106 47.0560363,39.8077893 45.8979946,38.7155202 C46.9222954,38.3365257 46.630914,36.5168741 46.745825,35.7904482 C46.8122126,35.3724782 46.6285,35.3461758 46.7936241,34.9839193 C46.816558,34.9339446 48.7847703,33.7429217 47.250371,33.5021347 M1.83216788,39.3600345 C2.92096062,38.8023367 2.46630259,35.4106532 2.45534404,33.9682216 C2.44073264,32.0265525 2.38569637,29.8461496 2.44901244,27.9201353 C2.60705907,23.0933583 2.33650466,18.1217755 2.35817824,13.2661353 C2.36450984,11.8660201 1.92543731,10.5671712 3.09020933,9.79446619 C4.14734404,9.09318561 5.73365492,9.75337266 6.88308497,9.85463885 C9.54917824,10.0897036 12.309028,9.81917122 15.0165202,10.1699338 C19.9994943,10.8152 25.2074839,8.89872518 30.2727689,9.53371799 C31.2933751,9.66164604 32.4647223,10.2416029 33.3085306,10.4299482 C34.6476653,10.7290993 35.6560953,10.2963942 36.9455513,10.2988403 C39.7217171,10.3042216 44.0087016,11.5551281 45.773515,9.01735827 C43.4330124,8.70817842 40.1807585,9.22160288 37.5497326,9.13183309 C36.3569554,9.09122878 35.151515,9.45128633 33.9285409,9.25535827 C32.7435565,9.06554532 31.8690642,8.4917036 30.6317223,8.37551655 C29.4148363,8.26104173 28.111743,8.11085468 26.9747326,8.21285468 C26.7180591,8.23560288 26.2855617,8.18814964 25.976287,8.26324317 C25.5963907,8.35545899 25.0976549,8.74462446 24.7791264,8.79648058 C24.1939399,8.89163165 22.8051264,8.7013295 22.0402197,8.73948777 C20.5371938,8.81433669 19.1211057,8.81825036 17.6275772,8.89040863 C15.1200176,9.01148777 12.6066135,8.81996259 10.2276342,8.67931511 C7.81163938,8.53671079 5.15601762,8.03111367 2.93630259,8.7015741 C1.41769119,9.15996259 1.19121451,9.36273957 1.07529741,10.7244518 C0.945499482,12.2468691 1.04096062,13.8468259 1.10452021,15.3941928 C1.20533886,17.8566245 1.29568601,20.6103799 1.22993472,23.1476604 C1.15882591,25.8850273 1.1921886,28.9506532 1.09964974,31.543459 C1.05216269,32.8692144 1.09453575,34.1553439 1.0543544,35.5048259 C1.04412642,35.8492288 0.709768912,39.9341209 1.83216788,39.3600345 M33.0876307,18.6028808 C33.5644169,18.7082369 34.245955,18.3091232 33.9105105,17.6394923 C33.6387181,17.0962886 33.0929552,17.3525519 32.7078959,17.2781828 C31.7456105,17.0916406 30.9842047,17.1114723 30.0168369,17.2050533 C28.1769744,17.3832291 26.357684,17.3813698 24.5243561,17.3627776 C21.3291622,17.3299313 17.8178857,16.694696 14.6580272,17.1852216 C14.3175002,17.2378996 12.1206531,17.0098347 12.0194873,17.6128434 C11.7561657,19.1814098 14.2398106,18.7615347 14.7405572,18.6977013 C16.6801333,18.4507342 18.5504907,18.8783561 20.4987797,18.8690599 C22.4853084,18.8597638 24.4836962,18.8668908 26.4068147,18.9874306 C28.5281505,19.1206751 31.0018724,18.1402436 33.0876307,18.6028808 M33,27.078127 C31.7115348,25.9982944 28.5350069,26.809425 26.8790464,26.7812441 C25.096124,26.7506601 23.5234823,26.566064 21.722458,26.3799387 C19.0138542,26.0998769 16.2196999,26.2693995 13.5093603,26.0675452 C13.1386414,26.0398012 12.3225638,25.8569528 12.068392,26.2423108 C11.5399626,27.0429555 14.2391434,27.2061428 14.4938112,27.2360714 C16.0210739,27.4145507 17.6457898,27.1401688 19.3057178,27.1768696 C21.5034982,27.2258039 23.7905487,27.6410906 25.9952724,27.7627711 C26.7138967,27.8023118 30.7479136,28.3654938 31.123096,27.6028606 C32.2345088,28.3613431 32.4128011,27.4988751 33,27.078127 M7.4237824,28.8486451 C7.70383813,29.1928942 8.9021734,30.1290569 9.42621534,29.9850659 C10.7247182,29.6284114 9.46664997,29.1127023 9.08527793,28.7813016 C8.79787045,28.5316435 7.93151264,28.08505 7.7385292,27.7977327 C7.0839937,26.8234678 7.6666199,26.8985646 8.40248414,25.9761364 C9.52247732,24.5721139 9.13536173,22.9866628 7.83410196,24.8452537 C7.43343157,25.4176731 6.15353783,26.2364278 6.01362483,26.8460633 C5.869117,27.4751929 6.91030861,28.7979159 7.4237824,28.8486451 M40.0940596,27.5172512 C39.7230325,28.062646 37.7400005,28.6138937 38.2176503,29.5961363 C38.7573491,30.7066131 40.2652639,29.2236716 40.889805,28.7668702 C42.7274653,27.4220067 42.052272,26.7755144 40.5423312,25.6224702 C40.1578813,25.3290212 39.6551586,24.4199414 38.9814849,24.1570877 C38.1160928,23.8192091 37.857007,24.008634 38.0712656,24.8985585 C38.2837514,25.7815658 40.678079,26.6584541 40.0940596,27.5172512 M42.8768506,16.4032019 C42.8768506,15.9641969 40.4620242,14.6177922 39.956102,15.1045551 C39.4018628,15.6376983 40.5422969,16.1235428 40.7322414,16.4977993 C40.8646657,16.7577123 41.1890797,16.6144387 41.1425523,16.9788221 C41.0924458,17.3725949 40.2764257,17.6515652 40.0059528,17.9045901 C39.5296855,18.3497945 38.4104699,19.2429585 39.3888248,19.8661069 C40.0218028,20.2688344 40.4464299,19.6691057 40.8590415,19.3038039 C41.1325821,19.0618001 43.5686271,16.3933289 42.8768506,16.4032019 M9.78206845,18.0800861 C9.60780798,17.7482296 8.95151357,17.3734848 8.71959976,17.0395189 C8.10925464,16.1604271 8.32209516,16.4934555 8.8041291,15.5384304 C9.44069999,14.2770942 9.14853194,13.323944 7.9714068,14.6141067 C6.53787603,16.1859726 6.73554462,16.7168025 8.27051059,18.2956992 C8.75146082,18.7899686 10.6327803,19.6983557 9.78206845,18.0800861 M38.8079275,15.4917311 C39.4481226,14.1479718 38.3443919,13.2499324 37.5991912,14.8689961 C37.1934998,15.7507719 36.2260417,17.0191053 36.1358881,17.9414224 C36.0975858,18.3369369 35.6728736,18.8123557 36.5527836,18.9813568 C37.2982448,19.1244303 37.2706255,18.4128342 37.5478609,17.912902 C38.002277,17.0947669 38.4178697,16.3112805 38.8079275,15.4917311 M36.9392689,25.7061889 C37.2047485,25.4220042 36.5505659,24.4740362 35.9318984,25.3893423 C35.7080165,25.7211054 34.8805756,28.2391615 35.0145908,28.5534363 C35.7939589,30.3796764 36.6312105,26.0358945 36.9392689,25.7061889" id="path-1"></path>
    </defs>
    <g id="Symbols" stroke="none" stroke-width="1" fill="none" fill-rule="evenodd">
        <g id="symbole/developpement">
            <mask id="mask-2" fill="white">
                <use xlink:href="#path-1"></use>
            </mask>
            <use id="Fill-16" fill="#000000" xlink:href="#path-1"></use>
            <g id="color/black" mask="url(#mask-2)" fill="#000000">
                <rect id="Rectangle-7-Copy-2" x="0" y="0" width="50" height="50"></rect>
            </g>
        </g>
    </g>
</svg>