<?xml version="1.0" encoding="UTF-8"?>
<svg width="50px" height="50px" viewBox="0 0 50 50" version="1.1" xmlns="http://www.w3.org/2000/svg" xmlns:xlink="http://www.w3.org/1999/xlink">
    <!-- Generator: Sketch 47.1 (45422) - http://www.bohemiancoding.com/sketch -->
    <title>symbole/home</title>
    <desc>Created with Sketch.</desc>
    <defs>
        <path d="M32.4679323,26.6512354 C32.4965417,26.4786984 32.5496968,26.3190713 32.6328455,26.1759397 C32.702142,26.0566575 32.7695527,25.9555663 32.8351097,25.8710964 C32.558865,25.5224075 32.2759904,25.1989879 31.9613678,24.843581 C31.2092239,23.9928486 30.6873016,22.9759158 29.8890385,22.1455342 C29.0492609,21.2716635 28.0732241,20.2768933 27.0917921,19.575511 C26.5795342,19.2090009 26.0778875,18.9665119 25.7872415,18.3931694 C25.6283228,18.0797619 25.3758978,17.1918988 26.0367996,17.0849778 C26.3362745,17.0368536 26.6957956,17.6527255 26.7971967,17.758278 C27.1235085,18.099515 27.5111792,18.275759 27.8798127,18.5487458 C28.6218954,19.0985524 29.3061326,19.8540961 30.0066142,20.4499359 C30.8727193,21.1867983 31.5590654,22.0651178 32.2305564,22.9767076 C32.8449269,23.8114918 34.757851,25.1201049 34.1809696,26.4247531 C34.1762148,26.4355027 34.1714459,26.4460005 34.1666635,26.4562503 C34.4201224,27.0837172 34.591982,27.8497698 34.6943023,28.1650519 C35.1298316,29.5037931 35.6596282,30.7913816 35.5836298,32.260197 C35.4915548,34.0395828 35.2599058,35.7992382 35.2182529,37.6122387 C35.1729461,39.5867359 35.4594017,41.5773096 35.2306757,43.5393839 C35.2300104,43.5450453 35.2292681,43.5507275 35.2284498,43.5564293 C36.1437112,43.8166011 35.1111202,44.6566982 34.4431904,44.7654719 C33.2770762,44.9557979 31.87152,44.6779888 30.6711999,44.7821672 C28.7486664,44.9477842 26.7126311,45.2356104 24.7838784,45.0980415 C23.0005012,44.9711575 21.2723201,44.9304211 19.5293682,44.8756606 C18.843488,44.8540646 16.5401521,44.9440451 15.5415164,44.4953056 C15.2149593,44.7109842 14.8338694,44.7959818 14.5411726,44.5792467 C13.9039552,44.1071797 14.5046349,42.91532 14.5185192,42.2810256 C14.5594415,40.4541408 14.2320637,38.6133716 14.4257135,36.7733332 C14.6032867,35.0823686 14.9328567,33.0516035 14.6953617,31.3584466 C14.5039042,29.991206 12.8984378,27.440144 13.6328455,26.1759397 C13.9677929,25.5993841 14.2586821,25.4478303 14.5091409,25.5439883 C14.8544114,25.0771818 14.9875842,24.5521384 15.2478171,24.0413335 C15.7904714,22.9768503 16.6274006,21.968319 17.2436891,20.9551557 C18.0058848,19.7024223 19.0084682,18.6776888 20.060135,17.669451 C21.0233419,16.7468987 22.2750601,14.0147109 24.1982619,14.6539283 C25.3048834,15.021879 24.767447,15.6166333 24.3641038,15.9940644 C23.7277544,16.5900742 23.2302246,17.1624167 22.6608933,17.8309601 C21.7135476,18.941779 20.4785957,19.7589661 19.5713405,20.9300139 C18.6164906,22.1619962 17.5349956,23.5916045 16.8521882,24.996623 C16.6498187,25.412397 16.5004886,25.8192204 16.28206,26.1766696 C16.9993123,26.2031725 17.7894084,26.3646218 18.0843666,26.3924538 C19.7478823,26.5507248 21.488864,26.4405361 23.1590577,26.560742 C24.8920257,26.6842869 26.6657301,26.4084812 28.3799994,26.1981209 C29.7850725,26.0258259 30.7854524,26.2381896 32.1491213,26.522009 C32.2932564,26.5519653 32.3972713,26.5965295 32.4679323,26.6512354 Z M32.4514557,27.218609 C32.2560935,27.474413 31.8914083,27.7111477 31.6048558,27.7654719 C30.6031402,27.9557979 29.395739,27.6779888 28.3646398,27.7821672 C26.7131447,27.9477842 24.9641492,28.2356104 23.3073117,28.0980415 C21.7753546,27.9711575 20.2908121,27.9304211 18.7935812,27.8756606 C18.2381919,27.8553033 16.4481991,27.9340897 15.5261433,27.5673299 C15.595257,27.8175145 15.6510054,28.03164 15.6943023,28.1650519 C16.1298316,29.5037931 16.6596282,30.7913816 16.5836298,32.260197 C16.4915548,34.0395828 16.2599058,35.7992382 16.2182529,37.6122387 C16.1757553,39.4643086 16.4251542,41.3305233 16.2674817,43.1740949 C17.176557,43.1562046 18.3131396,43.3607916 18.7037594,43.3924538 C20.6402862,43.5507248 22.6669926,43.4405361 24.6112935,43.560742 C26.6286709,43.6842869 28.6934703,43.4084812 30.6890803,43.1981209 C31.6772263,43.0940335 32.4934337,43.130333 33.3348195,43.2379633 C33.4116427,42.8841403 33.5129132,42.5371334 33.5185192,42.2810256 C33.5594415,40.4541408 33.2320637,38.6133716 33.4257135,36.7733332 C33.6032867,35.0823686 33.9328567,33.0516035 33.6953617,31.3584466 C33.547799,30.3046686 32.5602726,28.5476652 32.4514557,27.218609 Z" id="path-1"></path>
    </defs>
    <g id="Symbols" stroke="none" stroke-width="1" fill="none" fill-rule="evenodd">
        <g id="symbole/home">
            <mask id="mask-2" fill="white">
                <use xlink:href="#path-1"></use>
            </mask>
            <use id="Fill-4" fill="#000000" xlink:href="#path-1"></use>
            <g id="color/black" mask="url(#mask-2)" fill="#000000">
                <rect id="Rectangle-7-Copy-2" x="0" y="0" width="50" height="50"></rect>
            </g>
        </g>
    </g>
</svg>