<?xml version="1.0" encoding="UTF-8"?>
<svg width="50px" height="50px" viewBox="0 0 50 50" version="1.1" xmlns="http://www.w3.org/2000/svg" xmlns:xlink="http://www.w3.org/1999/xlink">
    <!-- Generator: Sketch 47.1 (45422) - http://www.bohemiancoding.com/sketch -->
    <title>symbole/innovation</title>
    <desc>Created with Sketch.</desc>
    <defs>
        <path d="M44.1752462,24.8930681 C43.6501017,24.858246 43.1222983,23.994289 43.8779746,24.0539086 C44.3347838,24.0900497 44.6317896,24.9231417 44.1752462,24.8930681 M40.5707607,24.687565 C40.3564486,24.8922767 40.1142173,25.0529331 39.8438012,25.1703258 C39.5792347,24.899927 39.3901827,24.9790681 39.2763792,25.4074853 C38.7161364,25.6166816 38.1949803,25.743835 37.6076162,25.8746816 C36.3275931,26.1593258 35.3033618,26.3252583 34.027859,26.1788472 C32.0131653,25.9477552 30.2212925,25.2932583 28.8362405,23.6980374 C28.1994197,22.9646632 27.9994659,22.5800374 27.7269225,21.5765282 C27.4416162,20.5276448 27.2525642,19.5315221 27.2828763,18.4264485 C27.350148,15.939835 27.8215815,13.1822951 29.6110613,11.2821172 C32.067674,8.67336258 35.8577549,9.3700681 37.8955815,12.0252521 C39.0729688,13.5592706 39.9134659,15.3953442 40.2830613,17.258062 C40.5643792,18.6733687 40.799963,20.0137552 40.8916971,21.4509577 C40.9624254,22.5591969 41.4460902,23.8251908 40.5707607,24.687565 M40.8608532,28.8918043 C40.4314312,31.3520374 39.7587145,33.8180742 38.1109572,35.8076816 C36.3028647,37.9917123 33.3221711,39.5732153 30.810252,40.8059699 C29.9535353,41.226473 27.4894775,42.2516141 27.0746798,41.370246 C26.6332925,40.4332153 27.5639283,38.790246 26.6197318,38.127835 C25.8385295,37.5801785 25.3995353,38.2665957 25.3418358,39.1447982 C25.3072694,39.6652828 25.2370728,40.4843933 25.5069572,40.979289 C25.8353387,41.5828718 26.0379514,41.2929515 26.4796046,41.7356141 C25.2120786,42.6243687 22.5725295,42.6607736 21.1436046,42.2640129 C20.649304,42.1265712 17.3471422,41.0225528 17.4628069,40.5593135 C16.754726,41.0919331 13.5522751,38.4433442 13.0531884,37.9721908 C12.262148,37.2258902 11.5971422,36.7354791 10.8244486,35.9229638 C10.1304601,35.193019 9.47077225,34.6224117 8.9682289,33.7771847 C8.0288185,32.1970006 7.62518844,30.7284055 7.09419422,29.0432276 C6.46508439,27.0462337 6.11410173,25.0397429 6.41722312,22.8939638 C7.35583584,23.126111 8.21813642,23.3205344 9.15621734,22.9295773 C9.77495723,22.6715773 10.3655121,22.2505466 9.54229827,21.8556325 C9.12404393,21.6551417 7.66826358,21.6957675 7.13567399,21.6999883 C6.32628671,21.7065834 6.36377803,22.1861785 6.36191676,21.2599638 C6.36032139,20.497835 7.03170867,20.183381 7.25452948,19.6716018 C7.15694566,19.8960988 7.13301503,19.1292215 7.15189364,19.0809454 C7.26011329,18.8036877 7.49782428,18.5150865 7.66108439,18.2652644 C8.62176647,16.7956141 9.54522312,15.4496877 10.7356393,14.1314607 C13.0093156,11.612927 15.9844254,9.59799448 19.3344486,8.89891472 C21.1592925,8.51798221 22.9251075,8.2022092 24.8103098,8.04920307 C26.5878243,7.90516626 29.2467838,7.48888405 30.9083676,8.29665092 C30.2508069,8.86989632 29.3544717,9.18962638 28.7336046,9.79980429 C28.1446451,10.3785896 27.6415699,11.1942706 27.1810382,11.8764669 C26.2796509,13.2113135 25.7672694,14.8527 25.6170382,16.4473933 C25.5439168,17.2248227 25.3857087,18.1286141 25.4229341,18.9002399 C25.4678705,19.8306755 25.9307954,20.7273442 26.0321017,21.6395773 C26.1501595,22.705608 25.7079746,22.5254301 25.4495237,23.3785712 C25.1751191,24.2850006 25.379859,25.591884 25.2689803,26.5542399 C25.4125642,26.5542399 26.603778,26.649473 26.7088069,26.5542399 C26.8678127,26.4096755 26.7614543,25.3235957 26.8388301,25.1165098 C27.2209225,24.0908411 27.3073387,24.601565 27.9587838,25.3468104 C29.1757896,26.7383748 30.7121364,27.3870681 32.5040092,27.8160129 C34.2068069,28.2233258 35.9946913,28.1631785 37.7557202,27.7009945 C38.5621827,27.4891601 39.3888532,27.2952644 40.1998358,27.092927 C40.9299861,26.9106387 40.4699861,26.5946018 40.9368994,26.9296325 C41.2245988,27.135927 40.9023329,28.6546448 40.8608532,28.8918043 M16.5470613,42.628062 C15.9519861,43.3569515 13.3137665,43.0221847 12.4985295,43.0609638 C11.492911,43.1089761 10.5535006,43.1290252 9.55506127,43.1406325 C8.08598613,43.1572521 6.66317688,43.0686141 5.19862197,42.9797123 C4.0464948,42.9095405 4.04729249,42.5214853 4.06962775,41.3871294 C4.09036763,40.3437859 4.30494566,39.5106939 4.22836763,38.4823871 C4.14886474,37.4158288 4.25548902,36.3126018 4.2634659,35.2249393 C4.27356994,33.8885098 4.31637919,32.5162031 4.44613642,31.1842583 C4.48548902,30.7809025 4.53095723,27.4928534 4.66550058,27.4575037 C5.84182428,30.7231294 6.50869133,33.9953503 8.9746104,36.6249454 C10.028622,37.7487491 11.3131653,38.7865528 12.5115584,39.7526018 C12.8056393,39.9897613 16.6613965,42.4879822 16.5470613,42.628062 M22.0667954,5.42804969 C21.9173618,5.10779202 24.4896393,4.38655276 24.8693387,5.21252209 C25.4960555,6.57744233 24.0421364,6.22869387 23.2880555,6.31443006 C22.9532925,6.3526816 22.412726,6.64365706 22.1287491,6.41309264 C21.819778,6.16247914 22.2095815,5.73458957 22.0667954,5.42804969 M47.8475353,33.8626571 C47.4401827,32.8008472 47.9783561,31.9181601 47.2673503,30.9526387 C47.0094312,30.602835 46.9219514,30.8700681 46.7095006,30.3234669 C46.4576971,29.6758288 46.6502058,28.5135098 46.6456855,27.8421294 C46.6307954,25.6623196 46.4077087,23.494381 46.3005526,21.3362031 C46.1838243,18.9743687 45.7469572,15.9823074 46.2774197,13.5901356 C46.4446682,12.8351294 47.1426451,11.4783871 46.2981595,10.8014669 C45.320726,10.0174423 44.4576277,11.3179945 44.2773503,12.0761663 C43.9838012,13.3102399 44.6142405,13.1696325 44.7862751,14.1887061 C45.0184023,15.5647061 44.4754428,17.2738902 44.5788763,18.7000129 C44.6312578,19.425473 45.233778,21.4936939 44.6551884,22.0455712 C44.0994659,22.5750252 43.1730844,21.7158166 42.9776509,21.2633933 C42.5461017,20.2638411 42.6402289,18.7617429 42.481489,17.6796202 C42.3583792,16.8394055 42.0313272,16.2424178 41.7396393,15.4544362 C41.0286335,13.5347368 40.2030266,11.8566816 38.8759399,10.3601233 C35.8811538,6.98211718 31.1003445,6.09389018 26.4777434,6.09389018 C26.4777434,4.1459638 27.9861711,4.65220307 29.5754312,4.76511104 C31.1851653,4.87933804 32.719385,4.84979202 34.3501249,4.69441166 C34.6481942,4.66618466 35.5320324,4.41847301 35.7700092,4.54931963 C35.8035121,4.56778589 35.9478936,5.13047914 35.7732,4.98274908 C36.2313387,5.37054049 36.3438127,5.90764479 37.0750266,6.11816012 C38.8804601,6.63785337 39.3016393,4.92075521 39.0679168,3.61176135 C38.8344601,2.30435031 38.0854312,1.76276135 36.741859,2.25739325 C35.5556971,2.69425215 34.9497202,2.95858344 33.6330035,2.97863252 C32.2764023,2.9992092 31.1564486,3.07439325 29.8056971,2.95409877 C28.060622,2.7987184 26.3817549,3.07861411 24.6696509,3.08415399 C21.6761942,3.09338712 18.717304,3.42419693 15.7140092,3.4437184 C14.4677549,3.45163252 12.8885988,3.58116012 11.6646798,3.21500061 C11.1730382,3.06806196 11.0416855,2.74938712 10.4596393,2.7269638 C10.0849919,2.7121908 8.51062197,2.99472454 8.29870289,3.15142393 C7.12131561,4.0235589 8.44627514,5.26317239 9.17536185,5.68288405 C9.52315376,5.88284724 9.61595145,5.9807184 9.8424948,6.0163319 C10.1065295,6.05827669 10.368437,6.15060798 10.6359283,6.0308411 C11.0669457,5.83773681 11.2012231,5.27029509 11.4788185,5.12414785 C12.5307029,4.56963252 13.8173734,5.18086564 14.901963,5.15765092 C16.302437,5.1278411 17.7935815,5.0199454 19.2488301,4.88303129 C20.2953965,4.78463252 20.6711075,4.54325215 20.7229572,5.60163252 C20.7713503,6.58825828 20.3687838,6.64629509 19.5163214,6.93489632 C18.9130035,7.13908037 18.2453387,7.2488227 17.6502636,7.41581043 C16.8597549,7.63740552 16.1192347,8.03680429 15.3010728,8.43303742 C13.9933965,9.06643006 12.7625642,9.50381656 11.6362289,10.4421663 C10.5040439,11.3850006 9.64626358,12.6647123 8.55529249,13.7048902 C3.14404393,18.8633074 2.2455815,26.2041724 2.35486474,33.3316202 C2.37826358,34.8635282 2.35247168,36.4518902 2.22776647,38.0114975 C2.09987052,39.609884 1.92517688,41.3465037 2.03446012,42.9641479 C2.17192832,44.9991294 4.0464948,44.7361172 5.77428671,44.864062 C7.17768555,44.9680006 8.51354682,44.8711847 9.92678382,44.8999393 C13.286911,44.9680006 16.6425179,44.6867859 19.9853618,44.5704485 C21.3350497,44.5234914 22.665859,44.5704485 23.9424254,44.3871049 C25.6723445,44.1386018 27.3684948,43.6043994 29.1103792,43.3086755 C31.0032925,42.9870988 32.1814775,42.1334301 33.8507723,41.3119454 C35.3998821,40.5495528 36.9072462,39.5484178 38.1965757,38.4056202 C39.279304,37.4459025 40.4138821,36.1176509 41.1185064,34.8411049 C41.9760208,33.287565 42.1608185,31.6617429 42.5543445,29.9288166 C42.7641364,29.0057675 42.7184023,27.7508534 43.0752347,26.9016693 C43.3459168,26.2577245 43.0380092,26.5252215 43.8149572,26.3825037 C45.4159168,26.0886264 45.0790266,27.8057245 45.0489803,29.0738288 C45.0298358,29.8784301 45.2755237,30.7162706 45.0731769,31.4857859 C44.8040902,32.5098718 44.117015,32.6641969 44.7570266,33.6468656 C45.0596162,34.1106325 45.849859,34.5862706 46.4832231,34.6432521 C46.7842173,34.6704239 48.0692925,34.4417061 47.8475353,33.8626571 M31,48.5411988 C31.3526048,49.1657985 31.6855146,49.153107 32,48.5004049 C31.9555273,48.295529 31.8729352,48.1296339 31.7534943,48 C31.501906,48.1803996 31.2515883,48.3607992 31,48.5411988 M24.6372729,22.3280659 C23.7589358,22.4270234 22.1656872,21.5714967 21.4131328,22.2898163 C20.4543069,23.2049983 21.3549851,23.6871532 22.1858859,23.9047195 C22.7664454,24.056665 23.2940598,24.0264865 23.8317735,23.8169912 C24.2342172,23.659782 25.6609795,22.2119135 24.6372729,22.3280659 M26.8831006,34.4701134 C26.8175317,33.3438522 24.1086795,34.3511876 25.3043147,36.3234509 C25.5637396,36.7518297 26.15386,37.3052804 26.7228843,36.7960812 C27.2060989,36.3637075 26.9178806,35.0592111 26.8831006,34.4701134 M25.1739687,28.2942627 C24.6728428,29.0784308 25.2839719,31.8546435 26.6261279,30.7392976 C27.7933846,29.7691897 25.9221654,27.1212316 25.1739687,28.2942627 M18.6720465,22.0600159 C18.0764982,21.9773317 15.1069332,21.7140771 16.2658522,23.635094 C16.6733465,24.3099155 17.7481291,23.8983485 18.2313197,23.5969035 C18.3993287,23.4919724 18.9445006,23.3829628 18.9906569,23.2264932 C19.0492095,23.0277545 18.8192192,22.0804088 18.6720465,22.0600159 M14.7117123,22.4689467 C14.1083141,22.3497165 13.7086895,21.8804653 13.0222606,22.0286315 C12.1339595,22.2203761 11.609789,22.9713174 12.3570648,23.6919282 C13.4760769,24.7709269 15.814562,22.686141 14.7117123,22.4689467" id="path-1"></path>
    </defs>
    <g id="Symbols" stroke="none" stroke-width="1" fill="none" fill-rule="evenodd">
        <g id="symbole/innovation">
            <mask id="mask-2" fill="white">
                <use xlink:href="#path-1"></use>
            </mask>
            <use id="Fill-1" fill="#000000" xlink:href="#path-1"></use>
            <g id="color/black" mask="url(#mask-2)" fill="#000000">
                <rect id="Rectangle-7-Copy-2" x="0" y="0" width="50" height="50"></rect>
            </g>
        </g>
    </g>
</svg>