<?xml version="1.0" encoding="UTF-8"?>
<svg width="50px" height="50px" viewBox="0 0 50 50" version="1.1" xmlns="http://www.w3.org/2000/svg" xmlns:xlink="http://www.w3.org/1999/xlink">
    <!-- Generator: Sketch 47.1 (45422) - http://www.bohemiancoding.com/sketch -->
    <title>symbole/interactions</title>
    <desc>Created with Sketch.</desc>
    <defs>
        <path d="M8.67761892,11.4013615 C8.5397,12.5842846 6.91872703,13.1367462 6.25345676,12.0899769 C5.73680811,11.2772077 7.14713243,9.84597692 7.41056486,10.2925154 C8.31445676,9.73751538 8.78294324,10.4988231 8.67761892,11.4013615 M13.7781865,14.2578231 C13.6380784,13.6174385 11.6532135,12.9609 11.1555378,12.7086692 C10.6279432,12.4409769 10.1832946,12.3325154 10.0356459,11.7530538 C9.93956486,11.3757462 10.0918351,11.1495923 9.97021351,10.7425154 C9.61021351,9.53859231 8.62434865,8.81697692 7.33929459,9.19520769 C6.96348378,9.30597692 6.58207838,9.5289 6.26464595,9.68097692 C5.68353784,9.95974615 5.4347,9.9699 5.15594324,10.6705154 C4.71275405,11.7844385 5.25810541,12.7026692 6.23667297,13.2170538 C7.40156486,13.8292846 7.80705135,13.8041308 9.10402432,13.2685154 C9.8267,12.9701308 9.91402432,13.2163615 10.6471595,13.5055154 C11.2015108,13.7238231 11.562727,13.8410538 12.0655108,14.1992077 C12.543727,14.5398231 14.0839432,15.6560538 13.7781865,14.2578231 M26.71391,17.1998504 C25.4322217,16.6650149 24.3190662,15.8440928 22.8114443,16.0257351 C22.0201524,16.1210973 19.4418359,17.6784273 20.1091525,18.6398699 C20.7644124,19.5834005 21.4065671,18.4229083 21.7923841,17.9985718 C22.3674402,17.365599 23.2297622,17.063871 24.069019,17.2914284 C24.7719818,17.4819005 25.6597279,18.387589 26.3716022,18.2929836 C26.8630471,18.2278952 27.3112449,17.4493563 26.71391,17.1998504 M33.9302968,35.0720382 C33.8954481,34.039922 34.1239005,33.0505966 33.9012562,32.0155461 C33.7347571,31.2411532 33.9094844,30.8240032 33.5266331,30.0848211 C33.2234014,29.5001753 32.8495043,29.0558836 32.1358328,28.9343574 C31.4981507,28.8257908 31.0504422,29.3744923 30.4432527,29.2253355 C30.0209547,29.1214147 29.9076966,28.6622074 29.4321576,28.5284553 C28.9411303,28.3903018 28.5306905,28.62015 28.081288,28.7741972 C27.4731305,28.9827723 27.7265093,29.117747 27.0426043,28.6252849 C26.4150864,28.1734131 26.5743255,28.3435986 25.8272573,28.2093575 C25.2442683,28.1044587 25.2786329,28.2022664 25.1932053,27.5806982 C25.0482446,26.524619 25.2524964,25.3267186 25.2161957,24.2557237 C25.1956253,23.6446698 25.2541905,23.0458419 25.1341562,22.442368 C24.9712871,21.6234727 24.8439927,21.6841135 24.3655496,21.3422754 C23.5444281,20.7559179 23.1228561,20.9182788 22.5831859,21.8653023 C22.0568259,22.7890965 21.9440518,23.9730593 21.7683564,25.0242481 C21.6171036,25.9277472 21.5016674,26.4402598 21.3881672,27.3765245 C21.2376404,28.6181939 21.2291702,29.9679408 21.0529909,31.2338176 C21.0198362,31.4702679 20.9235184,32.3740115 20.6323869,32.4397872 C20.3698119,32.4994499 19.7214817,31.7304365 19.4630208,31.6556135 C18.4136889,31.3519205 17.574417,32.2375697 17.2767513,33.13789 C16.6644797,34.9898797 17.206086,37.6852168 17.5785311,39.5587242 C17.7564044,40.4524425 17.8701466,41.6183109 18.2147611,42.4477206 C18.5605857,43.2798201 19.1503508,43.9077458 19.6716287,44.5657475 C20.1265973,45.1401235 20.2403395,45.721346 20.3780401,46.4201824 C20.4833121,46.9554353 20.4036926,48.5328298 20.9748234,48.895452 C21.7281837,49.3737319 21.7688404,48.0804689 21.7347178,47.6471806 C21.7047092,47.2645078 21.5491003,46.9158232 21.5713647,46.5255702 C21.6096014,45.85412 21.747786,45.9120711 22.3486834,45.7120543 C22.6052083,45.6264725 23.4093895,45.5528722 23.1247921,44.9882769 C22.9866075,44.7149043 22.4904981,44.6537744 22.2061427,44.528336 C21.2591788,44.1111859 20.3419814,43.632417 19.7219657,42.7719533 C18.7762117,41.4593733 18.4466015,39.1660261 18.3543978,37.5529318 C18.2922026,36.4633535 18.1082791,35.3488342 18.1220734,34.2565661 C18.1303015,33.5846269 18.6109226,31.8167518 19.5332021,32.9755291 C20.0614981,33.6391547 19.899839,35.2632524 19.9550161,36.0887498 C20.0099511,36.911802 20.1812904,37.6150397 20.1987147,38.3967682 C20.213961,39.0902251 20.5283249,41.0688759 21.5445022,40.8243565 C22.1541117,40.6776449 22.1059528,39.7636315 21.9271114,39.3455033 C21.7664204,38.969188 21.4568965,38.7493651 21.3554966,38.3045844 C21.2257821,37.7363213 21.3104838,37.0462877 21.2240881,36.451372 C21.1178481,35.7170803 20.8952039,34.9402423 21.1909335,34.2167095 C21.4583486,33.5623756 21.7047092,33.1263976 21.7944929,32.3588513 C21.8545101,31.8458496 21.8925048,31.3294247 21.9193673,30.8232696 C21.9919687,29.4493152 22.1100669,28.0597116 22.3617517,26.7094756 C22.5178446,25.8712632 22.6064183,24.8393915 22.8738334,24.0542398 C22.9962877,23.6952853 23.3031495,21.974358 23.8812984,22.4692652 C24.1608137,22.7088942 23.9689041,24.0786917 23.9981867,24.4185736 C24.0531217,25.054813 24.0957145,25.6783374 24.1153169,26.3216679 C24.1443574,27.2743154 24.2012285,28.8157655 23.6864848,29.5556812 C23.8834765,29.446381 23.9241333,31.9121144 23.9420416,32.1786405 C23.9713242,32.6155966 23.7726384,32.9970468 24.0911164,33.3616252 C24.6390148,33.9888174 25.124718,33.6002761 25.2045795,32.9828647 C25.3253398,32.0468445 24.968625,30.9814736 25.3955211,29.97601 C26.2026064,28.0753609 26.7659931,30.7393994 26.7667191,31.5974179 C26.7672031,32.0148125 26.3424851,34.0981176 27.2589564,33.9286656 C28.0084446,33.7900232 27.9026886,31.3993572 27.9133368,30.8934467 C27.923501,30.4203017 27.7787823,29.9117014 28.347493,29.5710859 C29.1785368,29.0732444 29.3343877,29.8427469 29.4079571,30.4643152 C29.4619242,30.9222999 29.2608183,32.4011531 29.7651559,32.6111953 C30.1092864,32.7542391 30.5482827,32.2023589 30.8057756,32.3236405 C30.7629408,31.5289525 30.7626988,31.011794 31.4119971,30.4569796 C32.1220385,29.8500825 32.4833514,30.3413219 32.6617088,31.1492139 C32.8197378,31.8649221 32.9250098,32.8324853 32.9218637,33.5618866 C32.9194436,34.1279489 32.6546906,34.7204194 32.6665489,35.2977296 C32.6989775,36.835512 32.6058057,38.2806215 32.4560049,39.7756129 C32.3884856,40.4502419 32.304994,40.9172739 32.0317708,41.5515571 C31.9013304,41.8542721 31.7445114,42.194154 31.5499397,42.458235 C31.4354715,42.6137493 31.303095,42.5685132 31.2031471,42.692729 C31.0315659,42.9061945 30.878377,43.3125857 30.6487146,43.524584 C30.4183263,43.7375603 30.4669692,43.582046 30.190358,43.7373158 C29.8975324,43.9011438 29.6809383,44.1253681 29.401907,44.2737913 C28.9617007,44.5080409 28.5965158,44.8618604 28.1575194,45.083884 C27.8571918,45.2357305 26.9971075,45.1310762 26.866909,45.5856378 C26.709848,46.1331166 27.6517299,46.1617254 27.9041406,46.2370374 C28.1052465,46.2969446 28.2347189,46.0673409 28.4646233,46.2409497 C28.6652451,46.3925517 28.6233783,47.3200137 28.7632569,47.5779816 C28.8682869,47.7711519 29.2092714,48.1428214 29.3832727,48.2971131 C29.8999525,48.7558314 29.7148189,48.7044824 30.0381371,48.3966325 C30.3454829,48.1036983 30.0395891,47.3760086 30.2738495,47.2478805 C30.1688195,47.160098 29.8924503,45.9284539 29.9377052,45.7748958 C30.0429772,45.417653 31.2062932,44.6364136 31.4831464,44.4307728 C31.7203109,44.2547188 31.8505094,44.3043562 32.0617794,44.0930915 C32.2285206,43.9265738 32.3330665,43.6470882 32.4555209,43.4448706 C32.8115096,42.8572906 33.0155195,42.3917257 33.2485699,41.7684458 C33.4095029,41.3378472 33.6040746,41.3632772 33.6527175,40.799171 C33.6974884,40.275655 33.6592517,39.7059249 33.6904703,39.1613802 C33.7202368,38.6451998 33.8008243,38.0370802 33.8935121,37.5076957 C34.0384728,36.6785305 33.9590953,35.9241883 33.9302968,35.0720382 M44.8588353,16.9868462 C44.5585608,16.055 44.3933843,15.4785385 43.6607961,14.8423077 C42.8145216,14.1075385 41.4959137,13.6393077 40.382502,14.3775385 C39.9657373,14.654 39.2968745,15.7233846 40.0577569,16.0379231 C40.7870314,16.3393077 40.8267961,15.3142308 41.1721882,15.05 C42.4186588,14.0957692 43.3872863,15.9527692 43.4410706,16.7816923 C43.4907765,17.5413846 43.1433451,18.9280769 42.0684235,18.8766154 C40.9267176,18.8223846 41.5050902,17.6966923 41.0997961,17.1636154 C40.3659333,16.1980769 38.3654627,17.1779231 37.3343843,17.2836154 C36.5174235,17.3673846 35.7466,17.4107692 34.9321882,17.5621538 C34.4677569,17.6484615 33.4313255,18.0322308 33.0714039,17.6588462 C32.7836196,18.2013846 31.5595804,18.3315385 32.5424824,18.8948462 C32.9011294,19.1006923 33.6069529,19.0081538 33.9984824,18.9248462 C34.7846,18.7575385 35.5768353,18.4471538 36.2999922,18.3495385 C36.7804824,18.2846923 37.3114431,18.4561538 37.7965216,18.4282308 C38.2206784,18.404 38.6379529,18.2318462 39.0659333,18.1810769 C40.392698,18.0239231 39.7381098,18.6661538 40.5425804,19.3266154 C41.0202667,19.7191538 41.6891294,19.8347692 42.2986,19.8527692 C43.7421098,19.8959231 45.3398353,18.4808462 44.8588353,16.9868462 M17.4494427,16.5212936 C17.7316626,15.137355 20.2428036,13.9292824 21.4917192,13.4915716 C23.9755009,12.6209777 26.4205852,13.7364046 27.9300304,15.6348373 C28.29211,16.0902496 28.8742964,17.3316563 29.7179983,16.9162448 C30.6588136,16.4530162 28.9741209,14.821486 28.6137667,14.3594069 C28.1457007,13.7591637 27.1356245,13.0246648 26.3947048,12.725118 C25.8965682,12.5237342 23.986346,11.7184291 23.680464,12.2993615 C22.9516218,11.3699157 19.943823,12.8621325 19.1501566,13.2943259 C18.3557506,13.7269791 17.4289848,14.3099805 16.8339814,14.9794205 C16.7001426,15.1299985 15.9165818,16.3256571 16.0072866,16.5229028 C16.1657734,16.8672782 17.119652,16.7252061 17.4494427,16.5212936 M29.4360752,12.9974311 C30.8233985,12.877997 31.580358,10.8297648 32.3893684,9.84738778 C32.7827572,9.3701542 33.1931475,8.91957329 33.5760738,8.40688663 C34.269997,7.47731206 34.5757626,8.07448263 35.6005614,8.05839046 C37.2285214,8.03274355 37.7764931,6.96789413 37.9763263,5.55656006 C38.2151321,3.87266476 36.6031274,3.14524814 35.130535,3.01952802 C34.0489773,2.92724945 32.3135155,3.13192181 31.9606687,4.28754116 C31.8147173,4.76653482 32.0956346,6.3747466 33.006654,5.80448013 C33.6419873,5.40695311 32.5444744,4.88169445 33.0707366,4.30262757 C33.9174118,3.3705386 36.3656293,3.43113569 36.6711334,4.85479034 C36.703567,5.00565449 36.5992039,5.4755963 36.5858643,5.65487319 C36.550815,6.11953476 36.7155989,6.24399768 36.4009402,6.62970701 C35.8752011,7.27439979 35.0476199,7.05665254 34.3565739,6.74536952 C33.9699857,6.57137287 33.9406908,6.23217998 33.4322149,6.45168731 C33.2862634,6.51454738 32.9258314,7.17910393 32.8327154,7.30985286 C32.2549256,8.12451924 31.6431328,8.9090128 31.0287244,9.701301 C30.4899073,10.3960304 29.79363,11.0153277 29.269722,11.6836559 C29.081136,11.9242842 28.6958556,13.0610455 29.4360752,12.9974311 M16.711768,4.287025 C17.043448,4.297525 17.112808,5.449775 17.892328,4.905275 C18.605128,4.407525 17.872408,3.907275 17.608648,3.474525 C16.726648,2.027025 19.959928,1.334025 20.435128,2.564775 C20.630248,3.070775 20.322568,4.397275 19.900648,4.729775 C19.364728,5.151525 18.757048,4.642525 18.966808,5.827525 C19.159528,6.915525 19.988008,7.715275 20.161288,8.542525 C20.311048,9.259525 20.498008,10.327275 21.113128,10.768775 C21.669688,11.168275 21.800248,10.987525 21.867208,10.540275 C21.861928,10.575525 21.761608,9.955025 21.726568,9.866275 C21.631048,9.624025 21.452968,9.460275 21.352168,9.228275 C21.030808,8.488525 20.886088,7.733025 20.533528,6.994525 C20.483368,6.889025 20.182168,6.259275 20.200888,6.177775 C20.260888,5.915275 20.495848,5.976775 20.612248,5.822525 C20.895688,5.447025 21.220888,4.937775 21.378088,4.442775 C21.488968,4.093525 21.388648,3.785525 21.451288,3.474275 C21.501208,3.227275 21.705208,3.077525 21.726808,2.825275 C21.774568,2.269275 21.323128,1.766525 20.946328,1.536525 C19.975048,0.943775 18.315448,0.822025 17.365768,1.335525 C16.763128,1.661275 16.239688,2.051275 16.143208,2.741775 C16.099288,3.056025 16.243048,4.271525 16.711768,4.287025" id="path-1"></path>
    </defs>
    <g id="Symbols" stroke="none" stroke-width="1" fill="none" fill-rule="evenodd">
        <g id="symbole/interactions">
            <mask id="mask-2" fill="white">
                <use xlink:href="#path-1"></use>
            </mask>
            <use id="Fill-13" fill="#000000" xlink:href="#path-1"></use>
            <g id="color/black" mask="url(#mask-2)" fill="#000000">
                <rect id="Rectangle-7-Copy-2" x="0" y="0" width="50" height="50"></rect>
            </g>
        </g>
    </g>
</svg>