<?xml version="1.0" encoding="UTF-8"?>
<svg width="50px" height="50px" viewBox="0 0 50 50" version="1.1" xmlns="http://www.w3.org/2000/svg" xmlns:xlink="http://www.w3.org/1999/xlink">
    <!-- Generator: Sketch 47.1 (45422) - http://www.bohemiancoding.com/sketch -->
    <title>symbole/less</title>
    <desc>Created with Sketch.</desc>
    <defs>
        <path d="M27.3640583,25.5647665 C27.3202671,25.5872601 25.4514512,25.7016836 25.3236285,25.7085295 C25.2549829,25.7114634 24.9011033,25.681146 24.8147045,25.7613403 C24.234768,25.8317548 23.9325698,25.870222 23.9081099,25.8767419 C23.3076586,25.9393325 22.956146,25.9729098 22.8535722,25.9774737 C22.7127304,25.9823636 22.5730723,25.9804076 22.4334141,25.9862755 C22.363585,25.9882315 21.4830283,25.9764957 21.3469207,25.9716058 C21.1729397,25.96476 21.0025094,25.9363986 20.8273449,25.9608481 C20.7255601,25.9755178 20.7652092,25.9119491 20.1326046,25.8943455 C19.5,25.8767419 19.1325099,25.4708805 19.1088391,25.4542549 C19.0165226,25.3916642 19.0319087,25.1941125 19.0248074,25.1794428 C18.9632631,25.0591513 19.1289593,24.8312822 19.1419783,24.8303042 C19.2922884,24.8185685 19.7763579,24.5926553 19.820149,24.6288406 C20.0860519,24.6386203 20.2549041,24.6304705 20.3267058,24.6043911 C20.9026972,24.6128669 21.2431634,24.6236247 21.3481042,24.6366644 C22.1205639,24.6757835 22.5766229,24.6757835 22.7162811,24.6366644 C22.8097811,24.6102589 23.6287935,24.5378885 23.6702175,24.5554921 C23.7329454,24.5828755 24.9389767,24.4371567 25.0490463,24.4136852 C25.1413627,24.3931476 25.2455146,24.4097732 25.3650525,24.4097732 C25.431331,24.3061075 25.5520524,24.3109973 25.6893435,24.3579403 C26.3994699,24.3175172 26.8259403,24.2937197 26.9687546,24.2865479 C27.0125457,24.2845919 27.3545899,24.2669883 27.4540076,24.184838 C27.4824127,24.1613665 28.742887,24.0420531 28.8162667,24.0224935 C28.89083,24.0029339 29.2920514,24 29.41514,24 C29.6956399,24.001956 29.9761398,24.0185816 30.2566397,24.0234715 C30.3761777,24.0254275 30.7738484,24.0146697 30.8519623,24.0176036 C31.353785,24.0651986 31.6409917,24.1030138 31.7135824,24.1310492 C31.7313355,24.138873 31.8840127,24.2268911 31.8816456,24.2963277 C31.865076,24.6653518 31.8350929,24.8619256 31.7916963,24.8860491 C31.7206836,25.0216622 31.6354685,25.0920766 31.5360508,25.0972925 C30.653916,25.2935403 30.2014077,25.3835144 30.1785258,25.3672148 C30.08976,25.3016902 29.3843678,25.4210036 29.1216211,25.3593909 C29.0872983,25.3505891 27.4528241,25.5207575 27.3640583,25.5647665 Z" id="path-1"></path>
    </defs>
    <g id="Symbols" stroke="none" stroke-width="1" fill="none" fill-rule="evenodd">
        <g id="symbole/less">
            <mask id="mask-2" fill="white">
                <use xlink:href="#path-1"></use>
            </mask>
            <use id="Fill-1" fill="#000000" xlink:href="#path-1"></use>
            <g id="color/black" mask="url(#mask-2)" fill="#000000">
                <rect id="Rectangle-7-Copy-2" x="0" y="0" width="50" height="50"></rect>
            </g>
        </g>
    </g>
</svg>