<?xml version="1.0" encoding="UTF-8"?>
<svg width="50px" height="50px" viewBox="0 0 50 50" version="1.1" xmlns="http://www.w3.org/2000/svg" xmlns:xlink="http://www.w3.org/1999/xlink">
    <!-- Generator: Sketch 47.1 (45422) - http://www.bohemiancoding.com/sketch -->
    <title>symbole/menu</title>
    <desc>Created with Sketch.</desc>
    <defs>
        <path d="M40.9079513,14.7643788 C41.81186,16.3658299 40.195927,16.3429003 39.0880656,16.2584229 C37.3393823,16.1256726 35.8103404,16.1256726 34.0399343,16.1389476 C31.0964985,16.1594636 28.2194378,15.570535 25.2373837,15.6948376 C22.0996497,15.8251742 18.4936693,16.0061973 15.452481,16.6108145 C13.8643048,16.9257947 12.536802,17.3988685 10.920869,17.0609587 C10.0374762,16.8763151 7.87123295,16.0315406 8.78600309,14.8054107 C9.20114943,14.2502731 11.0174147,14.5362896 11.3963564,14.520601 C12.6188658,14.4723281 13.6229407,14.0909728 14.7839023,13.8773655 C17.1215141,13.4477373 19.7632447,13.4030849 22.1201657,13.106207 C25.0346378,12.7393335 27.9201463,12.8648429 30.8454798,13.0615547 C33.523415,13.2425778 39.3366707,11.9814501 40.9079513,14.7643788 Z M39.9255992,23.0271185 C41.7430713,23.4048534 40.0305926,25.0678524 38.9420403,25.2742187 C37.1318091,25.6181626 34.9498772,25.1161252 33.0865459,25.3043892 C30.1020782,25.6036808 26.9414146,26.1238205 23.9472923,25.8752155 C21.1788455,25.6459195 18.4960829,25.5723034 15.7903908,25.4733441 C14.5063335,25.4262781 9.57043658,25.6724696 8.93926932,24.1506686 C7.79520324,21.39429 13.3320969,22.6819677 14.5087471,22.7929952 C17.5149377,23.0790117 20.6611194,22.8798863 23.6793781,23.0971141 C26.811078,23.3203759 30.0163939,22.8219589 33.1143028,22.4418104 C35.6534537,22.1304506 37.4612712,22.5142196 39.9255992,23.0271185 Z M37.935069,33.105882 C38.9620735,33.2265641 40.4030175,34.8823222 39.652375,35.8960516 C38.8727688,36.9483993 36.9044441,35.9563927 35.8569237,35.9334631 C32.8398718,35.8658811 29.7998903,36.4065368 26.7611156,36.0867293 C23.9685324,35.7934719 20.6147775,35.2491957 17.8185738,35.6414125 C15.5606121,35.9575995 11.3476008,38.6089847 9.25980092,37.3961298 C5.89035735,35.4386666 11.3101894,34.392353 12.544767,33.9916885 C14.7556627,33.2724233 16.8820808,32.3974783 19.3077906,32.5229876 C22.2463991,32.675047 25.1524235,33.0576092 28.1465458,33.126398 C31.4073755,33.2012209 34.6947553,32.7281471 37.935069,33.105882 Z" id="path-1"></path>
    </defs>
    <g id="Symbols" stroke="none" stroke-width="1" fill="none" fill-rule="evenodd">
        <g id="symbole/menu">
            <mask id="mask-2" fill="white">
                <use xlink:href="#path-1"></use>
            </mask>
            <use id="Fill-4" fill="#000000" xlink:href="#path-1"></use>
            <g id="color/black" mask="url(#mask-2)" fill="#000000">
                <rect id="Rectangle-7-Copy-2" x="0" y="0" width="50" height="50"></rect>
            </g>
        </g>
    </g>
</svg>