<?xml version="1.0" encoding="UTF-8"?>
<svg width="50px" height="50px" viewBox="0 0 50 50" version="1.1" xmlns="http://www.w3.org/2000/svg" xmlns:xlink="http://www.w3.org/1999/xlink">
    <!-- Generator: Sketch 47.1 (45422) - http://www.bohemiancoding.com/sketch -->
    <title>symbole/plus</title>
    <desc>Created with Sketch.</desc>
    <defs>
        <path d="M31.7952709,24.4982738 C31.5996347,24.5871994 31.8343981,24.9476442 31.711088,25.1005962 C31.4443114,25.4349562 31.2190334,25.2227206 30.9380286,25.2618478 C30.4317459,25.3306169 29.8946356,25.3057178 29.3361832,25.3377309 C28.209793,25.4041287 27.0205621,25.461041 25.9095857,25.5890938 C25.4412445,25.6424491 25.1436403,25.4124284 24.9717176,26.1285754 C24.8899061,26.4712352 25.141269,27.0865999 25.1768392,27.5276706 C25.2705074,28.6848883 25.8858722,29.9096895 25.8906149,31.042008 C25.8918006,31.4071956 25.9166997,31.7498554 25.2740645,31.7711975 C24.5259042,31.7972823 24.3990371,31.249501 24.1619023,30.6436216 C23.7421738,29.5717724 23.6781474,28.4109977 23.5240098,27.2905358 C23.4777685,26.9538045 23.5133387,25.8819553 23.2299627,25.6388921 C22.9371012,25.3875293 21.9292784,25.5713087 21.5949184,25.5760514 C20.7258194,25.5855368 19.1299023,25.900926 18.371071,25.3318026 C17.9774273,25.0377555 17.7177647,24.5255443 18.1007374,24.1662851 C18.5358797,23.7572276 19.6041719,24.1354576 20.1424678,24.1283436 C20.941612,24.1153012 21.7466846,24.1828846 22.5541285,24.1164868 C23.7149033,24.0192616 22.9857138,23.5900476 23.5832935,22.9177705 C23.2655329,22.8383304 23.4315272,21.8850486 23.3924,21.4985189 C23.3461587,21.0337347 23.170679,19.6180401 23.4659118,19.2979081 C24.1879872,18.5118063 24.879235,19.4591598 24.9136196,20.0958667 C24.9527468,20.8286131 25.0238873,21.8352503 25.0440437,22.4352013 C25.0570861,22.832402 24.7962379,23.494008 25.0416724,23.8402248 C25.3712897,24.3038233 26.5249504,24.028747 27.0181908,23.9860627 C28.1896366,23.8864661 31.2972878,22.992468 31.7952709,24.4982738" id="path-1"></path>
    </defs>
    <g id="Symbols" stroke="none" stroke-width="1" fill="none" fill-rule="evenodd">
        <g id="symbole/plus">
            <mask id="mask-2" fill="white">
                <use xlink:href="#path-1"></use>
            </mask>
            <use id="Fill-1" fill="#000000" xlink:href="#path-1"></use>
            <g id="color/black" mask="url(#mask-2)" fill="#000000">
                <rect id="Rectangle-7-Copy-2" x="0" y="0" width="50" height="50"></rect>
            </g>
        </g>
    </g>
</svg>