<?xml version="1.0" encoding="UTF-8"?>
<svg width="50px" height="50px" viewBox="0 0 50 50" version="1.1" xmlns="http://www.w3.org/2000/svg" xmlns:xlink="http://www.w3.org/1999/xlink">
    <!-- Generator: Sketch 47.1 (45422) - http://www.bohemiancoding.com/sketch -->
    <title>symbole/newletter</title>
    <desc>Created with Sketch.</desc>
    <defs>
        <path d="M40.7949655,21.9829225 C41.2831897,23.3448044 40.9380657,25.2462223 40.9135142,26.6609596 C40.8861568,28.2198477 40.9591099,29.7979558 40.8924701,31.3527253 C40.8258303,32.9198506 40.3747841,33.5548006 39.1885958,34.4924673 C38.3159652,35.1823319 37.5576745,35.4369984 36.3918289,35.5131924 C33.7991902,35.6827412 31.2437295,35.7609945 28.6644188,35.958687 C26.2303127,36.1447102 23.7912962,35.8159091 21.3073856,35.923679 C20.4726345,35.9600599 19.5817657,36.1378459 18.7533279,36.1199986 C17.4892762,36.0925413 16.2350452,35.7321643 14.9422332,35.8385613 C13.5161416,35.9559413 12.6505258,36.3032761 11.2181209,35.6827412 C9.78922348,35.0635791 10.1006768,34.3181135 10.0143958,32.9315199 C9.88251919,30.812503 8.72438973,28.7374177 8.76788097,26.6286973 C8.79313394,25.4116525 9.02391807,24.0820329 9.08143873,22.831353 C9.14106381,21.5188942 8.88923554,19.3415304 9.55212611,18.1718496 C12.2296429,20.5674988 14.8292963,22.9446143 17.6786735,25.0732413 C19.019887,26.0747463 20.3926668,27.0062351 21.7935054,27.9260546 C23.2595808,28.8884329 24.1714938,29.0758289 25.8423989,28.3152618 C27.0826005,27.7503279 28.2161785,26.8524742 29.4002624,26.1543724 C30.9049188,25.2681882 32.2706838,24.2989455 33.6034797,23.1807471 C34.8724416,22.1154039 36.1364933,20.7871572 37.3353081,19.5893326 C38.3068461,18.6187171 39.5779125,17.0289395 40.7991744,16.5463775 C40.9577069,17.4435447 40.9696319,18.4004316 40.9745422,19.3085817 C40.9787511,20.0506152 40.5634799,21.3383624 40.7949655,21.9829225 M42.691043,30.6793351 C42.557062,30.4706596 42.6728048,28.9762962 42.6707004,28.663283 C42.6664915,27.9795963 42.7191019,27.3027739 42.7141916,26.6190872 C42.7057739,25.3491872 42.8292329,23.9522972 42.7352357,22.6192454 C42.5584649,20.1062162 43.2045202,17.4895357 42.0218392,15.1584111 C41.3820972,13.8981212 40.8223229,14.0106961 39.810801,14.9037447 C38.7284305,15.8578858 37.6811335,16.8381113 36.5861365,17.7840152 C35.6910589,18.558311 34.7068943,19.3758521 33.891083,20.2153589 C33.532631,20.5839732 33.2352071,21.0466286 32.8613228,21.4227936 C32.3492486,21.9376179 31.809817,22.0879466 31.2830119,22.4771538 C30.8305628,22.8121329 30.4896476,23.4271763 29.9551264,23.7992227 C29.5153037,24.106058 29.0824958,24.3634702 28.6300467,24.6428482 C27.5652129,25.3018233 26.3790246,26.0953392 25.2265069,26.5840791 C23.2076719,27.4400604 21.1474501,26.285481 19.6266599,24.9208533 C17.8631605,23.3372537 15.993739,21.9334993 14.3200279,20.2380112 C13.6066314,19.5145114 12.7887156,18.7999352 12.0514691,18.1375279 C11.6916142,17.8135318 11.3135211,17.3879437 10.8245954,17.2588944 C10.4359802,17.1559295 9.69803219,17.5053237 9.5647526,17.4476633 C8.85416196,17.1422009 9.53178344,15.032794 10.2830594,14.8495165 C10.7221806,14.7424331 11.2026886,14.9559136 11.6411083,14.9284563 C12.2310458,14.8920754 12.7150611,14.732823 13.3028943,14.7383145 C14.4021001,14.7479245 15.4676353,15.0506412 16.5913927,15.0897679 C17.8736826,15.1350724 19.2836403,15.3657137 20.5561096,15.2600031 C21.2877444,15.1989107 22.1379279,14.9778794 22.9411128,14.8934482 C23.8544287,14.7980341 24.830877,14.8083306 25.7897885,14.8268643 C28.2919374,14.8749145 30.8417863,14.0855172 33.3712926,13.8940026 C35.5170939,13.7313181 37.5155862,13.5610828 39.6284184,13.6365904 C40.0871808,13.6530648 41.4038428,13.9001805 41.2621456,13.0922495 C41.1569248,12.4923075 39.4137681,12.4497487 38.9500955,12.3481567 C34.3323086,11.3377282 29.680851,13.3606446 25.003439,13.2789591 C23.0547511,13.2446375 21.0927353,13.631099 19.1244063,13.6098196 C16.6397942,13.5823623 14.1334365,13.229536 11.6642568,13.3853561 C10.8708925,13.4354657 9.0379475,13.1849179 8.38628047,13.605701 C7.33477468,14.2852691 7.77179143,15.8475893 7.75916494,16.8092812 C7.74443404,17.9062002 7.47577045,18.7292327 7.58309559,19.8192874 C7.69462956,20.956706 7.59642355,21.9966511 7.44139835,23.1230868 C7.18676419,24.9709629 6.84584904,26.8538471 7.3614306,28.6468086 C7.64342214,29.6297799 8.03694766,30.3999571 8.11831835,31.42686 C8.20039052,32.4702373 8.09797568,33.6124609 8.18986845,34.5659156 C8.41363786,36.9045909 11.2061959,37.4811942 13.2243294,37.4667791 C15.5967061,37.4503047 17.6849868,37.6747681 20.1646885,37.6363279 C20.8366982,37.6260314 21.6461964,37.4468725 22.283834,37.4770756 C22.7559243,37.4997278 23.3374442,37.9479682 23.8270713,37.934926 C24.8231608,37.909528 26.0261844,37.5690575 27.1611653,37.599947 C29.2515504,37.6582937 31.4176944,37.3693057 33.5291237,37.3404755 C35.5227057,37.3130182 37.9427824,37.3747971 39.6978641,36.3629957 C40.6371345,35.8214005 41.472587,35.1171208 42.0106157,34.2831054 C42.5268987,33.4834116 43.2823835,31.6025867 42.691043,30.6793351" id="path-1"></path>
    </defs>
    <g id="Symbols" stroke="none" stroke-width="1" fill="none" fill-rule="evenodd">
        <g id="symbole/newletter">
            <mask id="mask-2" fill="white">
                <use xlink:href="#path-1"></use>
            </mask>
            <use id="Fill-1" fill="#000000" xlink:href="#path-1"></use>
            <g id="color/black" mask="url(#mask-2)" fill="#000000">
                <rect id="Rectangle-7-Copy-2" x="0" y="0" width="50" height="50"></rect>
            </g>
        </g>
    </g>
</svg>