<?xml version="1.0" encoding="UTF-8"?>
<svg width="50px" height="50px" viewBox="0 0 50 50" version="1.1" xmlns="http://www.w3.org/2000/svg" xmlns:xlink="http://www.w3.org/1999/xlink">
    <!-- Generator: Sketch 47.1 (45422) - http://www.bohemiancoding.com/sketch -->
    <title>symbol/read</title>
    <desc>Created with Sketch.</desc>
    <defs>
        <path d="M21.9394531,29 L16.8798828,29 L16.8798828,21.0024414 L17.9433594,21.0024414 L17.9433594,28.0546875 L21.9394531,28.0546875 L21.9394531,29 Z M24.0073242,21.9960938 L22.8686523,21.9960938 L22.8686523,20.9487305 L24.0073242,20.9487305 L24.0073242,21.9960938 Z M23.9428711,29 L22.9331055,29 L22.9331055,23.0004883 L23.9428711,23.0004883 L23.9428711,29 Z M29.6845703,24.1015625 L29.6308594,24.1015625 C29.480468,24.065755 29.3345547,24.039795 29.1931152,24.0236816 C29.0516757,24.0075683 28.8842783,23.9995117 28.690918,23.9995117 C28.379393,23.9995117 28.0786147,24.0684401 27.7885742,24.2062988 C27.4985337,24.3441576 27.2192396,24.5222971 26.9506836,24.7407227 L26.9506836,29 L25.940918,29 L25.940918,23.0004883 L26.9506836,23.0004883 L26.9506836,23.8867188 C27.3517273,23.5644515 27.7053207,23.3361823 28.0114746,23.2019043 C28.3176285,23.0676263 28.630044,23.0004883 28.9487305,23.0004883 C29.1241871,23.0004883 29.2513017,23.0049641 29.3300781,23.013916 C29.4088546,23.0228679 29.5270174,23.0398762 29.6845703,23.0649414 L29.6845703,24.1015625 Z M35.6572266,26.1049805 L31.2368164,26.1049805 C31.2368164,26.4737974 31.2923172,26.7951646 31.4033203,27.0690918 C31.5143235,27.3430189 31.6665029,27.5677075 31.8598633,27.7431641 C32.0460621,27.9150399 32.2671699,28.0439449 32.5231934,28.1298828 C32.7792168,28.2158207 33.0611964,28.2587891 33.3691406,28.2587891 C33.7773458,28.2587891 34.1882304,28.1773283 34.6018066,28.0144043 C35.0153829,27.8514803 35.309895,27.6912443 35.4853516,27.5336914 L35.5390625,27.5336914 L35.5390625,28.6347656 C35.1988915,28.7779955 34.8515643,28.8979487 34.4970703,28.9946289 C34.1425764,29.0913091 33.7701842,29.1396484 33.3798828,29.1396484 C32.3844351,29.1396484 31.6074247,28.8702013 31.0488281,28.3312988 C30.4902316,27.7923964 30.2109375,27.0270232 30.2109375,26.0351562 C30.2109375,25.0540316 30.4785943,24.2752307 31.013916,23.6987305 C31.5492377,23.1222302 32.2537391,22.8339844 33.1274414,22.8339844 C33.9366902,22.8339844 34.5606261,23.0703101 34.9992676,23.5429688 C35.4379091,24.0156274 35.6572266,24.6870074 35.6572266,25.5571289 L35.6572266,26.1049805 Z M34.6743164,25.331543 C34.6707357,24.8015924 34.5373548,24.391603 34.2741699,24.1015625 C34.010985,23.811522 33.6108425,23.6665039 33.0737305,23.6665039 C32.5330377,23.6665039 32.1024593,23.8258448 31.7819824,24.1445312 C31.4615056,24.4632177 31.2797854,24.8588844 31.2368164,25.331543 L34.6743164,25.331543 Z M12.5,19 C8.91014913,19 6,21.9101491 6,25.5 C6,29.0898509 8.91014913,32 12.5,32 L38.5,32 C42.0898509,32 45,29.0898509 45,25.5 C45,21.9101491 42.0898509,19 38.5,19 L12.5,19 Z M12.5,18 L38.5,18 C42.6421356,18 46,21.3578644 46,25.5 C46,29.6421356 42.6421356,33 38.5,33 L12.5,33 C8.35786438,33 5,29.6421356 5,25.5 C5,21.3578644 8.35786438,18 12.5,18 Z" id="path-1"></path>
    </defs>
    <g id="Symbols" stroke="none" stroke-width="1" fill="none" fill-rule="evenodd">
        <g id="symbol/read">
            <mask id="mask-2" fill="white">
                <use xlink:href="#path-1"></use>
            </mask>
            <use id="Lire" fill="#9B9B9B" xlink:href="#path-1"></use>
            <g id="color/green" mask="url(#mask-2)" fill="#2ABF9D">
                <rect id="Rectangle-7-Copy-2" x="0" y="0" width="50" height="50"></rect>
            </g>
        </g>
    </g>
</svg>