<?xml version="1.0" encoding="UTF-8"?>
<svg width="50px" height="50px" viewBox="0 0 50 50" version="1.1" xmlns="http://www.w3.org/2000/svg" xmlns:xlink="http://www.w3.org/1999/xlink">
    <!-- Generator: Sketch 47.1 (45422) - http://www.bohemiancoding.com/sketch -->
    <title>symbole/search</title>
    <desc>Created with Sketch.</desc>
    <defs>
        <path d="M30.0075632,25.1592633 C29.3067986,25.9258998 29.0951677,26.1844819 28.6768112,27.0197933 C27.9080725,28.5544678 28.1750638,27.4619758 26.8870585,27.5754996 C25.9872767,27.6553868 25.3215504,28.7864208 24.5296864,29.1942658 C23.1877222,29.8859205 21.2900517,30.0400887 19.8044307,30.0751269 C17.3643684,30.1318888 14.4568961,29.7219416 12.9880936,27.4745895 C11.7505433,25.5811236 11.8395404,22.4725319 12.4618193,20.3933633 C12.8023909,19.2567232 13.6412062,18.3485322 14.234053,17.340132 C14.8633396,16.2700645 15.6166615,15.0276088 16.6755168,14.2840976 C18.3958939,13.0752787 20.7960126,12.6309939 22.8198208,12.9260158 C28.3425465,13.7339974 34.5681391,19.6932995 30.0075632,25.1592633 M39.6325649,35.0064073 C38.9009666,34.233464 37.920597,33.6504279 37.1385437,32.9139243 C36.2051252,32.0344647 35.4511025,31.0547958 34.6185942,30.0947483 C33.5856672,28.9055508 30.6039139,27.809555 31.5191124,26.0275106 C32.0832279,24.9287118 33.2710239,23.7486242 33.4420105,22.3344812 C33.6396261,20.7045028 33.1736176,18.876208 32.2100663,17.4795842 C30.7896165,15.420037 29.3628598,13.8271991 27.0286129,12.7452186 C25.1050141,11.8545468 22.58997,10.9884017 20.4372212,11.0486675 C15.7098632,11.1797105 11.5536284,16.3940998 10.679775,20.6939913 C9.93205917,24.374407 10.6005886,28.5446571 14.0840894,30.4241077 C15.8710391,31.387659 17.1919803,31.6749725 19.2935733,31.7695757 C21.3741434,31.8620766 24.3881319,31.7702765 26.2087183,30.6133141 C26.4918272,30.4325169 27.0727611,29.6546682 27.4595831,29.6434559 C28.1421278,29.6245353 29.7573902,31.6707679 30.1743452,32.0877228 C31.7111219,33.6266019 33.4511204,35.4345745 34.9115138,36.6532041 C35.845633,37.4324544 36.4784234,38.6349664 37.6395904,39.1626421 C38.4258482,39.5200321 40.2478362,39.5011114 39.7804262,38.1780679 C39.5673937,37.5747096 39.1154006,37.7702229 38.7250747,37.5501828 C38.2198234,37.2649716 37.8897633,37.0778675 37.4419747,36.6363858 C36.6655276,35.8704501 35.869459,35.120632 35.0551705,34.3715146 C33.9858038,33.3876411 32.9311531,32.3799417 31.9003283,31.3533215 C31.1280858,30.583882 29.3411361,29.6231338 28.8260741,28.7282574 C28.5744996,28.291681 28.3901985,27.7906343 29.0447126,27.5544767 C29.6515748,27.3365389 30.1904627,28.0954669 30.5814894,28.4598645 C31.6340378,29.4423365 32.854069,30.1585179 33.8148172,31.2475061 C34.5604307,32.0919274 35.3382794,33.1507827 36.0236272,33.8277213 C36.7342025,34.5284859 37.7362959,35.0701769 38.4258482,35.7737446 C38.7685221,36.1234261 39.025002,37.1661638 39.7664109,37.1493455 C41.0214803,37.1213149 40.1238008,35.5249731 39.6325649,35.0064073 M19.7831976,24.9847729 C19.6059041,24.5425905 18.123787,24.4073429 17.7797116,24.2300495 C17.4265262,24.0485514 16.9983591,23.8004808 16.7867282,23.4571061 C16.6178439,23.1838079 16.8561039,23.0723864 16.7699098,22.8761723 C16.2015897,21.5783562 16.4118191,21.5797578 16.9170704,20.1719217 C17.4258255,18.7535742 16.2555486,18.0275821 15.2863912,19.15301 C14.0971937,20.534217 14.5085425,22.7507354 15.4132296,24.1256355 C15.959826,24.9574431 17.7832154,26.2692744 18.8350631,26.0786665 C19.2667341,26.0001808 20.020056,25.5762182 19.7831976,24.9847729" id="path-1"></path>
    </defs>
    <g id="Symbols" stroke="none" stroke-width="1" fill="none" fill-rule="evenodd">
        <g id="symbole/search">
            <mask id="mask-2" fill="white">
                <use xlink:href="#path-1"></use>
            </mask>
            <use id="Fill-3" fill="#000000" xlink:href="#path-1"></use>
            <g id="color/black" mask="url(#mask-2)" fill="#000000">
                <rect id="Rectangle-7-Copy-2" x="0" y="0" width="50" height="50"></rect>
            </g>
        </g>
    </g>
</svg>