<?xml version="1.0" encoding="UTF-8"?>
<svg width="50px" height="50px" viewBox="0 0 50 50" version="1.1" xmlns="http://www.w3.org/2000/svg" xmlns:xlink="http://www.w3.org/1999/xlink">
    <!-- Generator: Sketch 47.1 (45422) - http://www.bohemiancoding.com/sketch -->
    <title>symbole/UX-UI</title>
    <desc>Created with Sketch.</desc>
    <defs>
        <path d="M13.1763121,31.6224335 C13.3185751,30.7408351 12.7718291,27.9947922 13.6432521,27.4636106 C12.9034348,26.8398243 13.4348144,24.5239618 13.4154825,23.566057 C13.3976377,22.6810014 13.1554931,21.5124515 13.3359243,20.6824649 C13.3639308,20.553559 13.8571423,19.0728689 14.3748905,19.8737158 C14.8653757,18.5873724 18.1636969,19.0894143 19.4259715,19.1306543 C20.9772333,19.1817722 22.5017279,19.1106517 24.0445629,19.3222847 C25.4069669,19.509223 26.5534978,19.7971624 27.7788435,19.8655665 C29.1236504,19.9406382 30.2384572,19.9055718 31.498749,19.9228581 C32.9821013,19.9428607 35.8779222,18.7950543 37.2202507,19.5917031 C38.6575038,20.4449026 37.6871906,24.1414419 37.5873091,25.7446174 C37.5144427,26.9148959 37.2326429,27.7266085 37.3297982,28.7702036 C37.3969642,29.4898051 37.2554447,30.4299297 37.312449,31.0339604 C37.3399598,31.3293082 37.5476539,31.6034186 37.5845828,31.9019767 C37.9357792,34.7213627 35.2149368,33.901501 33.3412287,33.7328366 C32.3833078,33.6461585 31.3716045,33.5224384 30.3861728,33.3972366 C28.9630468,33.2169658 27.4219467,33.676039 25.9851892,33.7180199 C24.7442294,33.754321 23.4824505,33.464159 22.2231501,33.5940528 C20.8111771,33.7397511 19.3362516,34.1069603 17.9453455,33.9699051 C17.4085132,33.9170586 15.6113892,33.7827198 15.5905702,33.0571915 C15.5660335,32.2054737 17.1621553,32.5507046 17.730216,32.6213313 C18.9833203,32.7769075 20.0443447,32.6284927 21.2989361,32.4790902 C21.8518783,32.4129086 24.8282488,32.0422422 25.1853934,32.5297142 C25.4039927,31.8357951 24.1818691,32.3156118 24.3055437,31.5330389 C24.4212873,30.801337 25.8724198,30.7549111 26.3894244,30.4603041 C27.622949,29.7567541 29.7043512,28.078507 29.5957951,26.4205094 C29.5221852,25.2973976 28.5290703,24.7380642 27.4474747,25.1749122 C26.6179375,25.5097714 26.3668705,26.7173389 25.5926028,26.7709262 C24.6059319,26.8390834 24.83271,25.718935 24.0916535,25.5018691 C22.7019866,25.0949016 22.5577408,27.1359129 22.8278919,28.000225 C22.9830428,28.496834 24.9026023,30.865543 24.0480328,31.0705085 C23.0492174,31.3100464 21.6808652,28.5328882 21.5056388,27.8994709 C21.2067378,26.817846 21.3770073,25.4756928 22.1386349,24.7518932 C23.0943252,23.8436247 23.6242178,24.3192433 24.5172033,24.5634732 C25.4151458,24.8086908 25.3417836,24.7373234 26.0843272,24.274546 C26.4781529,24.0293283 27.6613649,23.8334999 27.7243176,23.5729715 C27.9431647,23.8475758 29.0237689,23.9396868 29.3764523,24.1369969 C30.0039958,24.4881545 30.4508603,24.9166064 30.7212592,25.5952148 C31.2395031,26.896128 30.729686,27.7310535 30.206733,28.759091 C29.720709,29.7140324 28.9523895,30.4395606 28.1459019,30.9872875 C27.8405569,31.1944755 25.5132924,32.4788433 25.4295208,32.2753595 C25.6533248,32.8213578 28.1957187,32.2383176 28.5347707,32.2025103 C29.3962799,32.1111402 30.6917657,32.2654816 31.7277578,32.3845098 C32.6383403,32.4887211 33.4505283,32.6615835 34.2944405,32.7746849 C35.9490537,32.9961958 35.9059287,32.3751258 35.793407,31.1315042 C35.6043013,29.044067 36.0677715,27.5633769 36.0318339,25.7759795 C36.0065537,24.5353213 36.1646788,23.4482636 36.3071897,22.2174832 C36.5416511,20.1920296 35.7564781,20.7039493 34.1343327,20.8360655 C32.3183724,20.9837394 30.6374876,21.0938775 28.7380036,21.0032482 C26.5408577,20.898296 24.779919,20.4179854 22.6700146,20.383166 C21.9472986,20.3710656 19.6358962,19.923105 19.0703139,20.3634103 C18.6762404,20.6701176 18.7736435,21.4403432 18.6353459,21.8994164 C18.4068329,22.660011 18.0231688,23.069201 17.4702266,23.5909986 C16.9683405,24.0646416 16.5715407,24.7025039 15.8612169,24.1957701 C15.4599559,23.9093124 15.4654085,23.8922731 15.7293634,23.3736858 C15.9643204,22.9126371 18.2581259,21.2926693 17.4176835,20.4081076 C17.4841059,20.4779934 14.9067659,20.2115383 14.9379943,20.1964746 C14.140677,20.581217 14.7161731,23.2712031 14.7228649,24.0634069 C14.7330265,25.2988793 14.4611406,26.500767 14.375634,27.6520307 C14.3530801,27.9597258 15.0299448,28.7571154 14.2043731,28.7593379 C14.5543303,29.6293298 14.5449122,30.755158 14.4953432,31.7426963 C14.4594056,32.461804 14.5367333,33.6461585 13.4997498,33.3313019 C12.7106114,33.0915171 13.0642862,32.3183282 13.1763121,31.6224335 Z M15.8979109,12.6322305 C15.3129985,12.7094298 14.728086,12.8155489 14.1362074,12.8212851 C14.3134827,12.6711887 9.72161961,12.4998206 9.0254897,12.378883 C8.78455861,12.3370568 7.17322684,12.0700859 7.03078204,11.6049781 C6.66181878,10.4006214 9.72065877,11.3559327 10.2753047,11.4171185 C13.5945328,11.7827994 17.066775,11.738583 20.2024824,11.8568916 C20.891406,11.8829433 21.7777826,11.736193 22.457338,11.7216135 C23.3535632,11.702493 24.2517101,11.669271 25.1613871,11.70321 C26.9430281,11.769893 28.893537,11.8107632 30.7172148,11.8150653 C31.2891559,11.8162603 33.1536695,11.6515845 32.989846,12.6269724 C32.8879967,13.2340503 31.0412587,12.9142589 30.5493077,12.9276433 C28.9350934,12.9711426 26.9151637,12.9111518 25.1443321,12.9458078 C23.8998018,12.9699475 21.8954857,12.8406447 20.4539827,12.9634943 C19.9163917,13.0093837 15.9836661,13.0301773 15.8979109,12.6322305 Z M41.7010797,27.8367262 C42.9448854,26.8019605 39.1134701,25.9054582 40.3451694,25.1185985 C41.182444,24.5836434 42.6369,25.9957397 42.9160723,26.6228705 C43.0349566,26.4111612 43.9930525,27.083538 43.9879678,27.0627038 C44.1337282,27.6902554 42.9160723,28.4710121 42.449736,28.8561293 C42.0131813,29.2168347 40.3841518,30.7234216 40.0132135,29.5764878 C39.8512306,29.0747833 41.2228792,28.2348911 41.7010797,27.8367262 Z M7.38226723,26.9552668 C5.69718817,28.3655611 9.64227129,28.2975951 8.90776331,29.7005736 C8.43380985,30.6060788 6.92163455,29.1974365 6.57635985,28.8972533 C6.29156151,28.6494607 5.08549781,28.1951741 5.00637236,27.8131014 C4.90620007,27.3304957 6.01502206,26.5297714 6.36562507,26.137315 C6.78602898,25.6667449 8.18577687,24.2307274 8.4279487,25.5322289 C8.50574208,25.9506445 7.68198485,26.7044062 7.38226723,26.9552668 Z M40.2414619,11.0199446 C39.5744423,10.9257838 38.38396,11.1589232 39.3853157,11.8497225 C40.1857392,12.401974 42.0371022,11.2731227 40.2414619,11.0199446 Z M43.455984,11.9997533 C44.9124283,11.9313777 45.5881416,11.6519692 44.3654365,11.1933304 C42.430412,10.4670954 42.9765036,12.0224694 43.455984,11.9997533 Z M21.4600669,22.0628772 C17.7574197,21.5905068 22.3035574,23.9824237 21.983735,22.5204702 C21.6715093,22.9319472 21.9687947,22.1278473 21.4600669,22.0628772 Z M20.268521,24.011623 C19.4141489,24.1301961 18.2839285,24.3059918 19.6050965,24.849514 C21.1730761,25.4945363 21.454921,23.8470842 20.268521,24.011623 Z M16.2271009,25.7839714 C15.7414293,25.7631865 16.1112177,24.766203 16.6195472,25.0511874 C16.7534182,25.1262441 17.1107535,25.4056858 16.966159,25.7654959 C16.7608555,26.2765741 16.4811792,25.7945948 16.2271009,25.7839714 Z M20.2244691,39.4238859 C20.3959691,39.1158859 20.3554691,38.9758859 20.1029691,39.0033859 C19.9329691,39.3108859 19.9734691,39.4513859 20.2244691,39.4238859 Z M26.8514328,36.8261616 C27.3421047,37.3693708 26.462592,37.8643484 26.4345243,38 C26.3102732,37.4525705 25.7739056,36.8478658 26.1079801,36.2799378 C26.5847893,35.4690427 26.7011678,36.6612695 26.8514328,36.8261616 Z M23.8341598,36.7372526 C23.6795996,36.743065 23.8583214,36.9140889 23.7930298,36.9706272 C23.5595295,37.1735309 22.4674635,36.2673332 23.3212337,36.0256805 C23.9789448,35.8396854 24.1774016,36.7245711 23.8341598,36.7372526 Z M48.8045217,7.32658448 C49.2878775,8.10159942 48.7283446,9.67549089 48.6826383,10.5091859 C48.6325089,11.4190919 48.6153076,12.1556361 48.4843322,13.0560461 C48.3739983,13.8142606 48.4843322,14.5447176 48.3577799,15.1875198 C48.1437469,16.272492 47.7685134,17.3228893 47.6262342,18.4319666 C47.4286653,19.9715266 47.3952456,21.5420093 47.2726251,23.0908217 C47.1962023,24.0533206 47.2367482,25.0102194 47.144107,25.9486132 C47.0423737,26.9795316 46.7162867,28.0002236 46.5833454,29.0143415 C46.1577367,32.2585447 46.4983219,35.4525899 46.3602203,38.7425685 C46.3127939,39.8682028 46.8929684,42.2404839 45.6389953,42.5066137 C44.6705634,42.7123591 43.0472544,42.1394373 42.0102632,42.1265326 C39.8792707,42.0997492 37.8460798,41.3980234 35.7369576,41.6602575 C33.5536242,41.9315005 31.2412811,42.0491041 29.0400092,42.5762506 C26.9945317,43.0661438 24.9239895,42.781996 22.9055425,42.9297919 C19.8129987,43.1557466 16.6201961,42.7566735 13.4944784,42.8399456 C12.2365736,42.8733032 10.9472151,42.8764685 9.67653221,42.9317397 C8.34539913,42.9901763 6.22964212,43.0766137 5.02874729,42.6848453 C4.40753547,42.4820217 3.88117641,41.8457936 4.56750734,41.3408043 C4.64319296,41.285533 6.05640069,41.235375 6.10825026,41.2358619 C7.11747372,41.2419491 8.27511963,41.9926155 9.16712869,41.337639 C9.59814353,41.9770324 12.9695937,41.591838 13.8778211,41.5942729 C15.6478325,41.599873 17.5183484,41.4722865 19.2261895,41.523662 C20.2762045,41.5553152 21.3584106,41.7651998 22.347484,41.7074937 C23.5523105,41.6371264 24.7219973,41.4703387 25.9649124,41.5699243 C27.3916354,41.6836321 28.6173493,41.3410478 29.949711,41.0296296 C31.3196698,40.7092024 32.5539843,40.8423891 33.9470419,40.7578995 C35.6551287,40.6544181 37.3683758,40.2205266 39.1157798,40.4971264 C40.0635701,40.647357 40.968603,40.8550503 41.9301544,40.9220089 C42.3800906,40.9529316 44.5137861,41.3454305 44.7887608,41.116067 C44.9597906,40.9733844 44.9283369,39.0079679 44.9310399,38.7374553 C44.9391491,37.9751016 44.8676409,37.1876689 44.9187533,36.4671948 C44.9629851,35.8443584 45.4782862,33.8343841 44.9423436,33.4455374 C45.4266824,33.3230641 44.9462753,32.6410607 44.9558589,32.2884935 C44.9624937,32.0328335 45.3706554,31.0917613 44.9688827,31.3255076 C44.7430545,29.880907 45.260813,28.0408857 45.5927976,26.6656785 C45.7240188,26.1212445 45.7689878,25.6985534 45.8198545,25.118814 C45.865315,24.5950763 45.9110212,24.0603817 45.9756489,23.537131 C46.0191435,23.187729 46.1287402,22.9931839 46.1614227,22.591676 C46.0075941,22.6479212 45.9097926,22.7587072 45.8675266,22.9237905 C46.0783651,21.6683783 46.1002353,20.5875454 46.1901734,19.2361998 C46.2368625,18.5376394 46.9340057,16.0441025 46.5698301,15.4879812 C45.9788434,14.5846493 43.383908,14.6445468 42.575448,14.673765 C42.0267272,14.6934874 39.8325816,14.8439615 39.8318444,14.8456659 C38.9791525,15.278827 37.5892894,14.8144998 36.7009663,15.1422315 C36.7891843,15.0083144 36.7852526,14.9274771 36.6884339,14.8994763 C36.2087641,15.3165672 34.8992554,14.8507791 34.2704259,14.7745681 C33.5425662,14.6859393 33.1088483,14.7460803 32.2765522,14.8230218 C31.5285424,14.8919282 27.0817667,15.1527014 27.0817667,14.7838206 C26.3303167,14.7877163 25.1041114,15.0207321 24.1145465,14.9739829 C23.7076135,14.9547475 21.9034453,15.2184425 21.7157056,14.7227057 C21.2151485,15.3326373 17.9333907,14.5264562 17.0109108,14.5279171 C15.2010908,14.5310824 13.5672152,14.5590833 11.654679,14.3803648 C9.88196459,14.2147945 7.84754505,14.43661 6.0541891,14.4013046 C5.45558468,14.3893738 4.36453228,14.0893994 3.77428276,14.2878402 C3.27470855,14.4558453 3.62094567,14.198968 3.3484283,14.6949483 C3.2683195,14.8405527 3.0257815,19.3306723 2.99187041,20.5330046 C2.96287398,21.5614881 3.17911859,22.4916034 3.25455848,23.4782074 C3.32508371,24.3973659 3.59907547,25.305324 3.67132084,26.2220476 C3.73005091,26.9651659 3.30788244,27.8555931 3.25996459,28.596033 C3.24472918,28.8336751 2.66283457,34.5943029 2.48713581,37.1681901 C2.41095873,38.2843285 2.50433709,39.398519 2.47018027,40.520988 C2.43798931,41.5762549 2.38638548,41.6356654 1.64967938,42.3159644 C1.69022524,41.7221029 1.22554505,42.161838 1.04738897,41.6522225 C0.910761685,41.2602105 1.11103369,40.5816159 1.13069229,40.1742644 C1.17713574,39.210548 1.15354542,38.2219961 1.14469905,37.2521926 C1.13609841,36.3388778 1.21399562,35.3057681 1.28329219,34.6544439 C1.31155143,34.3890445 1.78335787,32.2855716 1.74109188,32.228596 C1.64427326,32.3410864 2.08438021,29.6790574 2.06570454,29.676379 C1.71873022,28.9990019 1.73593149,22.5122997 1.70030028,21.9681092 C1.51501796,19.1283357 1.74207481,16.9462169 1.93350044,14.2863793 C2.03891969,12.8181606 2.27064546,11.2936968 2.26155336,9.8318087 C2.25467285,8.75901077 1.48700445,7.5014072 2.76309344,7.20703301 C3.57007904,7.02100995 5.12876042,7.5371996 5.95638756,7.67939524 C6.7410115,7.81428631 7.95959908,7.58127051 8.63020313,8.00517909 C8.7606871,7.36042899 12.4483951,8.55813508 13.1765005,8.70252209 C14.9995901,9.0645853 17.3883559,9.43614446 19.2038278,9.01053148 C22.249191,8.29638797 25.2232917,8.69351312 28.3305794,9.03561051 C31.0734458,9.33728927 33.8369538,8.76290654 36.6250349,8.32000608 C38.1006587,8.08528588 39.7436264,8.05411971 41.2568473,7.7446494 C42.0739079,7.57737474 42.8364159,7.25037346 43.6829644,7.25499969 C43.9156731,7.25597363 45.4551874,7.63118507 44.9479955,7.31879294 C45.2256732,7.39549093 46.1577367,7.0421932 46.304439,7.45660584 C46.4703084,7.92458533 45.7156639,8.10841702 45.4220135,8.23381215 C44.6649116,8.55716114 43.7033602,8.69935678 42.877699,8.86638796 C40.873996,9.27203511 39.140353,9.29638368 37.1663837,9.7042222 C34.8061228,10.1916805 32.909805,10.1687929 30.7591539,10.2608305 C30.339197,10.2788484 24.775567,10.4208006 24.6470489,9.64213335 C24.1740138,10.2715438 21.4950378,9.94673394 20.6401344,10.1432269 C19.4328505,10.4212875 18.3440097,10.4617062 17.0706238,10.2825007 C15.8087873,10.1049996 14.7614753,10.1298352 13.4340282,9.97156948 C12.759001,9.89121921 7.04891435,9.10086467 5.92001914,8.98277411 C5.45755054,8.93432046 3.94678699,8.48995909 3.59489802,8.81209065 C3.40371812,8.98691337 3.47031163,10.2586391 3.46146526,10.4909244 C3.44254386,10.9805742 3.23981453,12.5157514 3.52683011,12.8149953 C3.92761986,13.2328168 5.03243327,13.1656147 5.62833464,13.2065203 C7.19930265,13.3146279 8.71154059,13.0818556 10.2822629,13.2179641 C12.3260203,13.3954652 14.3840301,13.3976566 16.4083746,13.2739658 C17.9530493,13.1794934 19.9769023,13.5848971 21.4422054,13.6825348 C25.1055858,13.9265075 29.0436952,13.9016719 32.715922,13.755824 C34.8584638,13.670604 37.1246092,13.7916164 39.3145774,13.6903264 C40.8437709,13.619472 42.6137822,13.492616 44.2294736,13.5206168 C44.8688696,13.5315737 46.0176691,14.26617 46.4956189,14.1256788 C47.2288847,13.9104374 47.1246941,12.8916933 47.2210213,12.191672 C47.3969658,10.9121547 47.1598339,9.62338495 47.4171158,8.34265025 C47.4994362,7.93091595 48.1747092,6.3175798 48.8045217,7.32658448 Z" id="path-1"></path>
    </defs>
    <g id="Symbols" stroke="none" stroke-width="1" fill="none" fill-rule="evenodd">
        <g id="symbole/UX-UI">
            <mask id="mask-2" fill="white">
                <use xlink:href="#path-1"></use>
            </mask>
            <use id="Fill-4" fill="#000000" xlink:href="#path-1"></use>
            <g id="color/black" mask="url(#mask-2)" fill="#000000">
                <rect id="Rectangle-7-Copy-2" x="0" y="0" width="50" height="50"></rect>
            </g>
        </g>
    </g>
</svg>